<svg width="971" height="879" viewBox="0 0 971 879" fill="none" xmlns="http://www.w3.org/2000/svg">
<path d="M157 752.6H503.7" stroke="#2D0B8D" stroke-width="2.13" stroke-linecap="round" stroke-linejoin="round"/>
<path d="M713 520C711.7 529.7 725 544.9 703.3 564.5C697.7 569.6 699.6 579.2 698.3 586.7C694.8 606.2 688 625.1 678.3 642.4" stroke="#2D0B8D" stroke-width="2.13" stroke-linecap="round" stroke-linejoin="round"/>
<path d="M719.8 506.5C722.6 509.1 725.5 511.9 726.3 515.5C727.5 521.1 723.1 526.8 717.7 528.9C712.3 531 706.3 530.3 700.6 529.4C684 526.8 667.7 522.4 652 516.3C657 514.2 661.5 510.8 665 506.6C666.5 504.8 667.8 502.3 666.6 500.3C665.4 498.2 662.1 498.3 660.2 499.8C658.3 501.3 657.4 503.7 656.6 506C655.8 508.3 654.7 510.7 652.7 512C649 514.3 644.2 512 640.5 509.7C635.9 506.8 631.3 504 626.7 501.1C633.3 494.3 640.1 487.2 648.9 483.8C655.1 481.4 662.3 480.7 667 476.1C668.9 474.3 670.3 471.9 672.8 470.9C676 469.7 679.6 471.5 681.8 474.1C684 476.6 685.4 479.8 687.4 482.6C689.4 485.3 692.4 487.8 695.8 487.5C699.9 487.2 702.8 482.7 702.3 478.6C701.8 474.5 698.6 471.2 694.8 469.5C691.1 467.8 686.8 467.6 682.7 467.7C688 466.1 691.9 461.7 696.2 458.3C700.5 454.9 706.5 452.2 711.4 454.8C715.5 456.9 717.3 461.9 716.9 466.4C716.5 470.9 714.4 475.1 712.4 479.2C710.6 482.6 704.7 490.4 706.2 494.1C707.1 496.2 711.2 498.7 712.9 500.3C715.3 502.3 717.5 504.5 719.8 506.5Z" fill="#0A9B83"/>
<path d="M793.1 577.3C787.1 590.4 781 603.6 772 614.8C763 626 750.7 635.2 736.5 637.5C726.7 639.1 716.7 637.3 706.9 638.2C697.1 639.1 686.4 643.6 683 652.9" stroke="#2D0B8D" stroke-width="2.13" stroke-linecap="round" stroke-linejoin="round"/>
<path d="M681 658.5C702 650.2 725.6 657.2 747.2 663.7C768.8 670.2 793.1 676 813.2 665.6C817.8 663.2 822 660.1 826.7 658C831.5 656 837.1 655.2 841.7 657.6" stroke="#2D0B8D" stroke-width="2.13" stroke-linecap="round" stroke-linejoin="round"/>
<path d="M681.6 666.6C691.2 663.5 697.7 652.7 695.9 642.8C695.3 639.6 694 636.6 693.5 633.5C692.2 626.2 694.7 618.9 695.5 611.6C696.3 604.3 694.3 595.5 687.6 592.5" stroke="#2D0B8D" stroke-width="2.13" stroke-linecap="round" stroke-linejoin="round"/>
<path d="M699.3 584.5C699.5 581.4 697.7 578.4 695.3 576.5C691.7 573.7 686.9 572.8 682.4 573.3C677.9 573.8 673.6 575.6 669.5 577.5C666.6 578.9 663.4 581 663.5 584.2C663.6 586.7 665.8 588.5 667.8 590C672 593.1 676.2 596.2 680.4 599.3C682.6 601 685.3 602.7 688 602C693.1 600.7 691.2 595.6 693.1 592.3C694.8 589.1 699 588.9 699.3 584.5Z" fill="#0A9B83"/>
<path d="M780.5 550C777.5 553.2 772.2 552.8 768.2 551.1C764.2 549.4 760.6 546.6 756.3 545.5C748.1 543.4 738.6 549.3 737 557.6C741.4 559.3 745.8 561 750.2 562.7C739.8 558.8 726.8 567.4 726.3 578.5C759 592.6 796 597.8 830.6 589.6C828.8 586.3 827 583.1 825.2 579.8C824 577.6 822.8 575.4 822.7 572.9C822.4 567.1 830 562.7 835 565.8C839.9 568.9 839.2 577.6 833.9 579.9C835.3 584.4 841.5 586 845.6 583.6C849.6 581.2 851.4 576.1 851 571.4C850 558.2 838.7 555.1 830.8 547.1C824.6 540.8 828.1 529.2 822.4 521.2C817 513.7 807.9 509 798.6 509.2C782.3 509.4 769.6 523 759.1 535.4C764.8 534.3 771 533.2 776.2 535.7C781.3 538.2 784.5 545.8 780.5 550ZM779.1 572.5C781.6 571.6 784.2 570.7 786.9 570.5C789.6 570.3 792.4 570.9 794.5 572.6C796.5 574.4 797.5 577.5 796.3 579.9C794.8 582.9 791 583.7 787.6 583.5C781.8 583.1 767 576.8 779.1 572.5Z" fill="#0A9B83"/>
<path d="M786.9 570.5C789.6 570.3 792.4 570.9 794.5 572.6C796.5 574.4 797.5 577.5 796.3 579.9C794.8 582.9 791 583.7 787.6 583.5C781.8 583.1 767 576.9 779.1 572.5C781.6 571.6 784.2 570.7 786.9 570.5Z" fill="#FAF6EB"/>
<path d="M820.9 651.8C808.8 665.8 796.8 679.9 784.7 693.9C790.5 690.8 797.6 690.1 804 692.1C806.2 692.8 808.3 693.8 810.6 693.8C814.2 693.8 817.3 691.5 819.7 688.8C822.1 686.1 824.1 683.1 826.9 680.9C829.7 678.7 833.8 677.6 836.9 679.4C834.4 685.6 829.9 691 824.2 694.6C839 694.5 853.7 688 863.9 677.2C865.5 675.5 867 673.1 865.9 671.2C865.3 670.1 864 669.5 862.8 669C859.7 667.8 849.1 665.4 848.3 661.9C847.9 660.1 849.8 657.3 850 655.3C850.2 652.9 849.8 650.4 848.6 648.2C846.1 643.5 840.5 640.7 835.2 641.6C829.2 642.4 824.8 647.3 820.9 651.8ZM818 659.3C819.2 658.5 820.9 658.5 821.9 659.5C823.2 660.7 822.8 666 822.2 667.7C821.1 670.5 815.9 673.7 815.6 667C815.5 665.6 815.5 664.2 815.8 662.8C816.1 661.4 816.8 660.1 818 659.3Z" fill="#0A9B83"/>
<path d="M821.9 659.5C823.2 660.7 822.8 666 822.2 667.7C821.1 670.5 815.9 673.7 815.6 667C815.5 665.6 815.5 664.2 815.8 662.8C816.1 661.4 816.8 660.1 818 659.3C819.2 658.6 820.9 658.5 821.9 659.5Z" fill="#FAF6EB"/>
<path d="M847.5 662.1C840.9 667.9 834 673.9 825.7 676.7C821.4 678.2 816.9 678.7 812.5 680C802.8 682.8 794.4 688.7 786.2 694.6" stroke="#2D0B8D" stroke-width="2.13" stroke-linecap="round" stroke-linejoin="round"/>
<path d="M828.5 544.1C811.2 544.3 794.1 552.9 778.5 560.3C768.4 565.1 758.9 571.3 748.3 574.7C741 577 733.3 577.9 725.7 577.4" stroke="#2D0B8D" stroke-width="2.13" stroke-linecap="round" stroke-linejoin="round"/>
<path d="M705.5 493C699.9 496.8 692.6 497.9 686.1 496C682.6 495 679.4 493.2 675.9 492C668.3 489.5 659.8 490.3 652.2 492.9C644.6 495.5 637.6 499.6 630.7 503.8" stroke="#2D0B8D" stroke-width="2.13" stroke-linecap="round" stroke-linejoin="round"/>
<path d="M663.5 582.5C668 584.2 672.7 585.3 677.5 585.6C679.5 585.8 681.6 585.8 683.6 586.4C686.7 587.4 689.2 589.7 691.5 592" stroke="#2D0B8D" stroke-width="2.13" stroke-linecap="round" stroke-linejoin="round"/>
<path d="M645.4 118.7C684.8 151.9 715.6 190.6 741 235.2C766.3 279.7 786.6 330.1 766 364.7C745.8 399.3 685.2 418.1 645.1 443.5C605.4 468.5 586.2 500.4 558.8 511C531.7 521.6 496.8 511.7 449.9 511.7C403.3 511.7 344.7 521.6 320.4 498.7C296.1 476.1 305.3 420.9 302.9 370.6C300.2 319.9 285.1 274 293.3 231.2C301.2 188.4 331.7 148.3 371.7 115.1C411.4 82.2001 460.8 55.8001 509.1 56.5001C557.7 57.4001 606 85.2001 645.4 118.7Z" fill="#49574E"/>
<path fill-rule="evenodd" clip-rule="evenodd" d="M584 238.4C586.3 242.5 592.3 245.3 593.3 249.9C594.5 255.6 592.7 262.7 597.6 267.4C598.2 268 599.3 268.6 600.1 268.2C611.3 263.5 608.6 232.4 592.7 230.2" fill="#180746"/>
<path d="M584 238.4C586.3 242.5 592.3 245.3 593.3 249.9C594.5 255.6 592.7 262.7 597.6 267.4C598.2 268 599.3 268.6 600.1 268.2C611.3 263.5 608.6 232.4 592.7 230.2" stroke="#2D0B8D" stroke-width="2.13" stroke-linecap="round" stroke-linejoin="round"/>
<path fill-rule="evenodd" clip-rule="evenodd" d="M192.1 393.4C196.7 392.2 202.8 394.5 206.8 392.1C211.7 389.1 215.7 382.8 222.4 383C223.3 383 224.4 383.4 224.7 384.2C229.1 395.5 204.8 415.1 192.2 405.2" fill="#180746"/>
<path d="M192.1 393.4C196.7 392.2 202.8 394.5 206.8 392.1C211.7 389.1 215.7 382.8 222.4 383C223.3 383 224.4 383.4 224.7 384.2C229.1 395.5 204.8 415.1 192.2 405.2" stroke="#2D0B8D" stroke-width="2.13" stroke-linecap="round" stroke-linejoin="round"/>
<path fill-rule="evenodd" clip-rule="evenodd" d="M320.2 685.4C320.2 685.4 300.8 751.1 305.1 762.2C307.8 769.2 347 760.3 347 760.3C347 760.3 414.1 766.8 427.9 765.4C427.9 765.4 429.3 759.8 412.3 750.8C395.4 741.8 367.8 732.8 367.8 732.8L374.7 683.4L320.2 685.4Z" fill="#180746" stroke="#2D0B8D" stroke-width="2.13" stroke-linecap="round" stroke-linejoin="round"/>
<path fill-rule="evenodd" clip-rule="evenodd" d="M354.3 715.7L326 734.9L305.4 731.6L301.9 772.6L395.2 774.6L443.1 775.7C443.1 775.7 448.5 743.5 414.4 742.7C407.4 742.6 354.3 715.7 354.3 715.7Z" fill="#180746" stroke="#2D0B8D" stroke-width="2.13" stroke-linecap="round" stroke-linejoin="round"/>
<path d="M354.3 715.7L326 734.9L305.4 731.6L301.9 772.6L395.2 774.6L443.1 775.7C443.1 775.7 448.5 743.5 414.4 742.7C407.4 742.6 354.3 715.7 354.3 715.7Z" fill="#180746"/>
<path fill-rule="evenodd" clip-rule="evenodd" d="M381.4 783.3C388.8 777.5 409.7 756.7 409.7 756.7L413 732.7C413 732.7 465.9 756.8 449.4 777.9C439.8 790.2 421 790.7 407.3 792.3C398.8 793.3 392.3 791.4 385 787.6" fill="#180746"/>
<path d="M381.4 783.3C388.8 777.5 409.7 756.7 409.7 756.7L413 732.7C413 732.7 465.9 756.8 449.4 777.9C439.8 790.2 421 790.7 407.3 792.3C398.8 793.3 392.3 791.4 385 787.6" stroke="#2D0B8D" stroke-width="2.13" stroke-linecap="round" stroke-linejoin="round"/>
<path d="M354.3 715.7L326 734.9L305.4 731.6L301.9 772.6L395.2 774.6L443.1 775.7C443.1 775.7 448.5 743.5 414.4 742.7C407.4 742.6 354.3 715.7 354.3 715.7Z" stroke="#2D0B8D" stroke-width="2.13" stroke-linecap="round" stroke-linejoin="round"/>
<path d="M354.3 715.7L326 734.9L305.4 731.6L301.9 772.6L395.2 774.6L443.1 775.7C443.1 775.7 448.5 743.5 414.4 742.7C407.4 742.6 354.3 715.7 354.3 715.7Z" fill="#180746" stroke="#2D0B8D" stroke-width="2.13" stroke-linecap="round" stroke-linejoin="round"/>
<path fill-rule="evenodd" clip-rule="evenodd" d="M354.3 715.7L326 734.9L305.4 731.6L301.9 772.6L395.2 774.6L443.1 775.7C443.1 775.7 448.5 743.5 414.4 742.7C407.4 742.6 354.3 715.7 354.3 715.7Z" fill="#180746" stroke="#2D0B8D" stroke-width="2.13" stroke-linecap="round" stroke-linejoin="round"/>
<path d="M354.3 715.7L326 734.9L305.4 731.6L301.9 772.6L395.2 774.6L443.1 775.7C443.1 775.7 448.5 743.5 414.4 742.7C407.4 742.6 354.3 715.7 354.3 715.7Z" fill="#180746"/>
<path fill-rule="evenodd" clip-rule="evenodd" d="M381.4 783.3C388.8 777.5 409.7 756.7 409.7 756.7L413 732.7C413 732.7 465.9 756.8 449.4 777.9C439.8 790.2 421 790.7 407.3 792.3C398.8 793.3 392.3 791.4 385 787.6" fill="#180746"/>
<path d="M381.4 783.3C388.8 777.5 409.7 756.7 409.7 756.7L413 732.7C413 732.7 465.9 756.8 449.4 777.9C439.8 790.2 421 790.7 407.3 792.3C398.8 793.3 392.3 791.4 385 787.6" stroke="#2D0B8D" stroke-width="2.13" stroke-linecap="round" stroke-linejoin="round"/>
<path d="M354.3 715.7L326 734.9L305.4 731.6L301.9 772.6L395.2 774.6L443.1 775.7C443.1 775.7 448.5 743.5 414.4 742.7C407.4 742.6 354.3 715.7 354.3 715.7Z" stroke="#2D0B8D" stroke-width="2.13" stroke-linecap="round" stroke-linejoin="round"/>
<path d="M354.3 715.7L326 734.9L305.4 731.6L301.9 772.6L395.2 774.6L443.1 775.7C443.1 775.7 448.5 743.5 414.4 742.7C407.4 742.6 354.3 715.7 354.3 715.7Z" fill="#2D0B8D" stroke="#2D0B8D" stroke-width="2.13" stroke-linecap="round" stroke-linejoin="round"/>
<path d="M385.3 732L382.8 742.7" stroke="#FFFDFD" stroke-width="2.13" stroke-linecap="round" stroke-linejoin="round"/>
<path d="M393.9 736.1L392.3 745.8" stroke="#FFFDFD" stroke-width="2.13" stroke-linecap="round" stroke-linejoin="round"/>
<path d="M402.8 740.5L401.6 748.3" stroke="#FFFDFD" stroke-width="2.13" stroke-linecap="round" stroke-linejoin="round"/>
<path fill-rule="evenodd" clip-rule="evenodd" d="M302.3 764.9L305 719C305 719 345.6 714.7 360.9 712.5C369.7 711.3 375.4 721.1 367.3 728.4C361.5 733.7 344.9 740.6 344.9 740.6L340.4 766.1L302.3 764.9Z" fill="#180746" stroke="#2D0B8D" stroke-width="2.13" stroke-linecap="round" stroke-linejoin="round"/>
<path fill-rule="evenodd" clip-rule="evenodd" d="M357.5 721.6C357.6 719.5 359.4 717.8 361.4 717.9C363.4 717.9 364.9 719.7 364.8 721.7C364.7 723.8 362.9 725.5 360.9 725.4C358.8 725.4 357.3 723.7 357.5 721.6Z" fill="#180746" stroke="#2D0B8D" stroke-width="2.13" stroke-linecap="round" stroke-linejoin="round"/>
<path fill-rule="evenodd" clip-rule="evenodd" d="M301.6 761.5L341.2 762.2L344.7 767.7L444.7 768.9L443.9 780.2L300.3 777.7L301.6 761.5Z" fill="#180746" stroke="#2D0B8D" stroke-width="2.13" stroke-linecap="round" stroke-linejoin="round"/>
<path fill-rule="evenodd" clip-rule="evenodd" d="M322.5 291.7C359.4 355.2 396.3 419.4 421.7 488.3C424.9 497 426.5 506.8 425.1 515.9C414.8 581.8 399.5 646.8 386.7 712.3C332 715 332 715 277.4 717.7C292 655.8 319.1 595.6 321.1 532C322.4 489.8 295.6 451.3 287.1 410C282.5 387.5 280.7 364.3 281.9 341.3C282.5 330 285.5 318 292.6 309.3C299.9 300.3 312.5 297.5 322.5 291.7Z" fill="#2D0B8D" stroke="#2D0B8D" stroke-width="2.13" stroke-linecap="round" stroke-linejoin="round"/>
<path fill-rule="evenodd" clip-rule="evenodd" d="M302.7 153.8L299 179.6L282.5 192.9C282.5 192.9 248.8 354.6 259.3 360.8C265.1 364.3 360 386 369.2 383.2C377.9 380.5 345 212.8 349.3 211.8C357.2 209.8 344.6 190.1 344.6 190.1L343.7 163.1L344.4 151.3L302.7 153.8Z" fill="#180746" stroke="#2D0B8D" stroke-width="2.13" stroke-linecap="round" stroke-linejoin="round"/>
<path fill-rule="evenodd" clip-rule="evenodd" d="M376.9 239.8L379.4 280.9L262.3 281.5L249.2 233L376.9 239.8Z" fill="#2D0B8D" stroke="#2D0B8D" stroke-width="2.13" stroke-linecap="round" stroke-linejoin="round"/>
<path fill-rule="evenodd" clip-rule="evenodd" d="M388.8 221.9L475.7 236.4L587.3 219.2C587.3 219.2 606.4 226.7 612.9 236.4C619.3 246.1 610.6 265.8 610.6 265.8C610.6 265.8 609.2 270.6 604 262.9C598.8 255.1 602.4 245.9 602.4 245.9L593.7 238.8L576.7 247C576.7 247 586.9 251 589.2 255.5C591.5 260 585.8 262.9 585.8 262.9L565.6 256.2C565.6 256.2 524.4 281.4 473.6 285.5C422.7 289.6 362.9 276.7 362.9 276.7" fill="#180746"/>
<path d="M388.8 221.9L475.7 236.4L587.3 219.2C587.3 219.2 606.4 226.7 612.9 236.4C619.3 246.1 610.6 265.8 610.6 265.8C610.6 265.8 609.2 270.6 604 262.9C598.8 255.1 602.4 245.9 602.4 245.9L593.7 238.8L576.7 247C576.7 247 586.9 251 589.2 255.5C591.5 260 585.8 262.9 585.8 262.9L565.6 256.2C565.6 256.2 524.4 281.4 473.6 285.5C422.7 289.6 362.9 276.7 362.9 276.7" stroke="#2D0B8D" stroke-width="2.13" stroke-linecap="round" stroke-linejoin="round"/>
<path fill-rule="evenodd" clip-rule="evenodd" d="M132 340.2L180.6 409.1C180.6 409.1 199.3 417.7 210.7 415.6C222.1 413.5 230.2 393.5 230.2 393.5C230.2 393.5 232.7 389.2 223.5 390.8C214.3 392.4 210.1 401.4 210.1 401.4L199 400L193.1 382.1C193.1 382.1 203 386.7 207.9 385.2C212.8 383.8 210.8 377.6 210.8 377.6L191.9 367.7C191.9 367.7 185.4 338.3 166.7 306.5" fill="#180746"/>
<path d="M132 340.2L180.6 409.1C180.6 409.1 199.3 417.7 210.7 415.6C222.1 413.5 230.2 393.5 230.2 393.5C230.2 393.5 232.7 389.2 223.5 390.8C214.3 392.4 210.1 401.4 210.1 401.4L199 400L193.1 382.1C193.1 382.1 203 386.7 207.9 385.2C212.8 383.8 210.8 377.6 210.8 377.6L191.9 367.7C191.9 367.7 185.4 338.3 166.7 306.5" stroke="#2D0B8D" stroke-width="2.13" stroke-linecap="round" stroke-linejoin="round"/>
<path fill-rule="evenodd" clip-rule="evenodd" d="M358.5 615.7L314.2 695.4L331.1 739.4L331.4 740.3C331.4 740.3 334.7 745.8 319.5 745.3L311.6 739.7L273.5 690.9C273.5 690.9 266.8 683.9 272.1 673.8C275.8 666.7 279.1 660.9 279.1 660.9L314.9 589.6" fill="#180746"/>
<path d="M358.5 615.7L314.2 695.4L331.1 739.4L331.4 740.3C331.4 740.3 334.7 745.8 319.5 745.3L311.6 739.7L273.5 690.9C273.5 690.9 266.8 683.9 272.1 673.8C275.8 666.7 279.1 660.9 279.1 660.9L314.9 589.6" stroke="#2D0B8D" stroke-width="2.13" stroke-linecap="round" stroke-linejoin="round"/>
<path fill-rule="evenodd" clip-rule="evenodd" d="M355.3 133.5C356.6 104.8 349.1 110.2 347 102.5C343 87.1 338.1 82.2 309.5 85.8C304.5 86.4 298.6 87 294.2 89.6C274 101.4 275.3 118 275.3 118C275.3 118 266.6 157.2 309.6 158.4C352.6 159.5 309.7 157.7 332.3 150.7C354.9 143.6 355.3 133.5 355.3 133.5Z" fill="#2D0B8D" stroke="#2D0B8D" stroke-width="2.13" stroke-linecap="round" stroke-linejoin="round"/>
<path fill-rule="evenodd" clip-rule="evenodd" d="M297.3 138C295.5 131.4 296.1 118.2 297.7 112.2C300.6 101.4 302.7 102.1 313.8 99C326.2 95.6 337.3 94.5 345.4 104.4C348.5 108.2 353.9 128.3 355.3 133.5C360.4 152 350.4 165.3 333.3 170C322.3 173 313.4 172.1 305.3 164.3C300.7 160 299.1 144.7 297.3 138Z" fill="#180746" stroke="#2D0B8D" stroke-width="2.13" stroke-linecap="round" stroke-linejoin="round"/>
<path fill-rule="evenodd" clip-rule="evenodd" d="M311.6 133.7C310.8 131.1 313.1 128.1 316.9 126.8C320.7 125.6 324.4 126.6 325.2 129.2C326.1 131.8 323.7 134.8 319.9 136.1C316.2 137.3 312.5 136.2 311.6 133.7Z" fill="#FAFCFF" stroke="#2D0B8D" stroke-width="2.13" stroke-linecap="round" stroke-linejoin="round"/>
<path fill-rule="evenodd" clip-rule="evenodd" d="M334.7 126.8C333.9 124.2 336.2 121.2 340 119.9C343.8 118.7 347.5 119.7 348.3 122.3C349.2 124.9 346.8 127.9 343 129.2C339.3 130.5 335.6 129.4 334.7 126.8Z" fill="#FAFCFF" stroke="#2D0B8D" stroke-width="2.13" stroke-linecap="round" stroke-linejoin="round"/>
<path fill-rule="evenodd" clip-rule="evenodd" d="M306.5 183.2L303.8 156.3C303.8 156.3 325.5 151.5 330.7 157.2C335.9 162.8 330.4 181.3 330.4 181.3L317.3 183.2" fill="#180746"/>
<path fill-rule="evenodd" clip-rule="evenodd" d="M300 138.3C297.6 135.3 292.6 138.3 291.7 141.2C289.8 147.1 296 157 305.3 149.5" fill="#180746"/>
<path d="M300 138.3C297.6 135.3 292.6 138.3 291.7 141.2C289.8 147.1 296 157 305.3 149.5" stroke="#2D0B8D" stroke-width="2.13" stroke-linecap="round" stroke-linejoin="round"/>
<path fill-rule="evenodd" clip-rule="evenodd" d="M323.3 134.8C321.5 136 319.3 135.7 318.4 134.3C317.5 132.9 318.2 130.7 320 129.6C321.8 128.4 324 128.7 324.9 130.1C325.9 131.5 325.1 133.6 323.3 134.8Z" fill="#2D0B8D" stroke="#2D0B8D" stroke-width="2.13" stroke-linecap="round" stroke-linejoin="round"/>
<path fill-rule="evenodd" clip-rule="evenodd" d="M341.7 127.2C340.5 125.4 340.8 122.5 345.6 121.6C347.3 121.3 347.1 122.1 348.3 123.9C349.5 125.7 347.9 127.7 346.4 128.6C345.1 129.6 342.9 128.9 341.7 127.2Z" fill="#2D0B8D" stroke="#2D0B8D" stroke-width="2.13" stroke-linecap="round" stroke-linejoin="round"/>
<path d="M299.5 144.6C299.5 144.6 298.3 143.2 298.5 143.4" stroke="#2D0B8D" stroke-width="2.13" stroke-linecap="round" stroke-linejoin="round"/>
<path fill-rule="evenodd" clip-rule="evenodd" d="M322.7 144.6C325.1 149.7 332 147.9 336.9 149.7C336.9 149.7 333 158.1 324.8 153.7C319.3 150.7 322.7 144.6 322.7 144.6Z" fill="#2D0B8D" stroke="#2D0B8D" stroke-width="2.13" stroke-linecap="round" stroke-linejoin="round"/>
<path fill-rule="evenodd" clip-rule="evenodd" d="M331.8 128.6C331.8 128.6 345.9 138.1 345.2 140.3C342.5 148.7 335.5 142.3 334.2 142.6" fill="#180746"/>
<path d="M331.8 128.6C331.8 128.6 345.9 138.1 345.2 140.3C342.5 148.7 335.5 142.3 334.2 142.6" stroke="#2D0B8D" stroke-width="2.13" stroke-linecap="round" stroke-linejoin="round"/>
<path fill-rule="evenodd" clip-rule="evenodd" d="M500.2 469.7C495.8 500.8 431.5 584.6 392.9 632.7C376 653.7 364 667.9 364 667.9C364 667.9 350.1 663.7 330.6 663.4C320 663.2 305.3 668.3 296.2 666.4C270.4 660.8 260.9 636.7 260.9 636.7C260.9 636.7 320.2 540.3 372.7 491.9C351.4 481.2 259.5 412.3 249.9 402.8C230.6 383.7 228.1 344.8 238.6 331.3C257.8 306.6 312.7 312.6 333.5 298.4C342.5 312.2 370.2 336.5 400.5 363C448.4 404.5 502.8 451.5 500.2 469.7Z" fill="#2D0B8D" stroke="#2D0B8D" stroke-width="2.13" stroke-linecap="round" stroke-linejoin="round"/>
<path fill-rule="evenodd" clip-rule="evenodd" d="M125 256.4C100.2 289.2 115.8 336.9 141 366.9C147 372.5 193 343.5 193 343.5L184.6 297.6L231.1 270.4C231.1 270.4 217 344.7 234.6 354.4C264.6 371 302.5 355.1 335.8 353.8C353.5 356.8 385.2 357.2 399.3 350.4C419.4 340.7 400.5 288 400.5 288C400.5 288 435.7 302.3 475.3 298.8C515 295.4 559.1 274.2 559.1 274.2L535.7 218.9L452.7 229.7C452.7 229.7 433 213.4 402.5 207.1C372 200.7 350 189 350 189C349.4 191.4 337.2 207.6 334.9 210.7L299.3 188.8L293.5 185.2C293.5 185.2 265.9 177.6 232.3 187.7C200.3 197.3 149.8 223.6 125 256.4Z" fill="#0A9B83" stroke="#2D0B8D" stroke-width="2.13" stroke-linecap="round" stroke-linejoin="round"/>
<path d="M160.8 148.4C164.114 148.4 166.8 145.714 166.8 142.4C166.8 139.086 164.114 136.4 160.8 136.4C157.487 136.4 154.8 139.086 154.8 142.4C154.8 145.714 157.487 148.4 160.8 148.4Z" fill="#FAF6EB"/>
<path d="M264.3 148.4C267.614 148.4 270.3 145.714 270.3 142.4C270.3 139.086 267.614 136.4 264.3 136.4C260.987 136.4 258.3 139.086 258.3 142.4C258.3 145.714 260.987 148.4 264.3 148.4Z" fill="#FAF6EB"/>
<path d="M367.9 160.1C371.214 160.1 373.9 157.414 373.9 154.1C373.9 150.786 371.214 148.1 367.9 148.1C364.586 148.1 361.9 150.786 361.9 154.1C361.9 157.414 364.586 160.1 367.9 160.1Z" fill="#FAF6EB"/>
<path d="M471.4 148.4C474.714 148.4 477.4 145.714 477.4 142.4C477.4 139.086 474.714 136.4 471.4 136.4C468.086 136.4 465.4 139.086 465.4 142.4C465.4 145.714 468.086 148.4 471.4 148.4Z" fill="#FAF6EB"/>
<path d="M125.7 193.9C129.014 193.9 131.7 191.214 131.7 187.9C131.7 184.586 129.014 181.9 125.7 181.9C122.386 181.9 119.7 184.586 119.7 187.9C119.7 191.214 122.386 193.9 125.7 193.9Z" fill="#FAF6EB"/>
<path d="M229.2 193.9C232.514 193.9 235.2 191.214 235.2 187.9C235.2 184.586 232.514 181.9 229.2 181.9C225.886 181.9 223.2 184.586 223.2 187.9C223.2 191.214 225.886 193.9 229.2 193.9Z" fill="#FAF6EB"/>
<path d="M332.8 193.9C336.114 193.9 338.8 191.214 338.8 187.9C338.8 184.586 336.114 181.9 332.8 181.9C329.487 181.9 326.8 184.586 326.8 187.9C326.8 191.214 329.487 193.9 332.8 193.9Z" fill="#FAF6EB"/>
<path d="M436.3 193.9C439.614 193.9 442.3 191.214 442.3 187.9C442.3 184.586 439.614 181.9 436.3 181.9C432.987 181.9 430.3 184.586 430.3 187.9C430.3 191.214 432.987 193.9 436.3 193.9Z" fill="#FAF6EB"/>
<path d="M528.2 193.9C531.514 193.9 534.2 191.214 534.2 187.9C534.2 184.586 531.514 181.9 528.2 181.9C524.886 181.9 522.2 184.586 522.2 187.9C522.2 191.214 524.886 193.9 528.2 193.9Z" fill="#FAF6EB"/>
<path d="M160.8 240.5C164.114 240.5 166.8 237.814 166.8 234.5C166.8 231.186 164.114 228.5 160.8 228.5C157.487 228.5 154.8 231.186 154.8 234.5C154.8 237.814 157.487 240.5 160.8 240.5Z" fill="#FAF6EB"/>
<path d="M264.3 240.5C267.614 240.5 270.3 237.814 270.3 234.5C270.3 231.186 267.614 228.5 264.3 228.5C260.987 228.5 258.3 231.186 258.3 234.5C258.3 237.814 260.987 240.5 264.3 240.5Z" fill="#FAF6EB"/>
<path d="M367.9 240.5C371.214 240.5 373.9 237.814 373.9 234.5C373.9 231.186 371.214 228.5 367.9 228.5C364.586 228.5 361.9 231.186 361.9 234.5C361.9 237.814 364.586 240.5 367.9 240.5Z" fill="#FAF6EB"/>
<path d="M471.4 240.5C474.714 240.5 477.4 237.814 477.4 234.5C477.4 231.186 474.714 228.5 471.4 228.5C468.086 228.5 465.4 231.186 465.4 234.5C465.4 237.814 468.086 240.5 471.4 240.5Z" fill="#FAF6EB"/>
<path d="M125.7 286C129.014 286 131.7 283.314 131.7 280C131.7 276.686 129.014 274 125.7 274C122.386 274 119.7 276.686 119.7 280C119.7 283.314 122.386 286 125.7 286Z" fill="#FAF6EB"/>
<path d="M229.2 286C232.514 286 235.2 283.314 235.2 280C235.2 276.686 232.514 274 229.2 274C225.886 274 223.2 276.686 223.2 280C223.2 283.314 225.886 286 229.2 286Z" fill="#FAF6EB"/>
<path d="M332.8 286C336.114 286 338.8 283.314 338.8 280C338.8 276.686 336.114 274 332.8 274C329.487 274 326.8 276.686 326.8 280C326.8 283.314 329.487 286 332.8 286Z" fill="#FAF6EB"/>
<path d="M436.3 286C439.614 286 442.3 283.314 442.3 280C442.3 276.686 439.614 274 436.3 274C432.987 274 430.3 276.686 430.3 280C430.3 283.314 432.987 286 436.3 286Z" fill="#FAF6EB"/>
<path d="M529.2 284C532.514 284 535.2 281.314 535.2 278C535.2 274.686 532.514 272 529.2 272C525.886 272 523.2 274.686 523.2 278C523.2 281.314 525.886 284 529.2 284Z" fill="#FAF6EB"/>
<path d="M160.8 332.6C164.114 332.6 166.8 329.914 166.8 326.6C166.8 323.286 164.114 320.6 160.8 320.6C157.487 320.6 154.8 323.286 154.8 326.6C154.8 329.914 157.487 332.6 160.8 332.6Z" fill="#FAF6EB"/>
<path d="M264.3 332.6C267.614 332.6 270.3 329.914 270.3 326.6C270.3 323.286 267.614 320.6 264.3 320.6C260.987 320.6 258.3 323.286 258.3 326.6C258.3 329.914 260.987 332.6 264.3 332.6Z" fill="#FAF6EB"/>
<path d="M367.9 332.6C371.214 332.6 373.9 329.914 373.9 326.6C373.9 323.286 371.214 320.6 367.9 320.6C364.586 320.6 361.9 323.286 361.9 326.6C361.9 329.914 364.586 332.6 367.9 332.6Z" fill="#FAF6EB"/>
<path d="M471.4 332.6C474.714 332.6 477.4 329.914 477.4 326.6C477.4 323.286 474.714 320.6 471.4 320.6C468.086 320.6 465.4 323.286 465.4 326.6C465.4 329.914 468.086 332.6 471.4 332.6Z" fill="#FAF6EB"/>
<path d="M125.7 378C129.014 378 131.7 375.314 131.7 372C131.7 368.686 129.014 366 125.7 366C122.386 366 119.7 368.686 119.7 372C119.7 375.314 122.386 378 125.7 378Z" fill="#FAF6EB"/>
<path d="M229.2 378C232.514 378 235.2 375.314 235.2 372C235.2 368.686 232.514 366 229.2 366C225.886 366 223.2 368.686 223.2 372C223.2 375.314 225.886 378 229.2 378Z" fill="#FAF6EB"/>
<path d="M332.8 378C336.114 378 338.8 375.314 338.8 372C338.8 368.686 336.114 366 332.8 366C329.487 366 326.8 368.686 326.8 372C326.8 375.314 329.487 378 332.8 378Z" fill="#FAF6EB"/>
<path d="M436.3 378C439.614 378 442.3 375.314 442.3 372C442.3 368.686 439.614 366 436.3 366C432.987 366 430.3 368.686 430.3 372C430.3 375.314 432.987 378 436.3 378Z" fill="#FAF6EB"/>
<path d="M528.2 378C531.514 378 534.2 375.314 534.2 372C534.2 368.686 531.514 366 528.2 366C524.886 366 522.2 368.686 522.2 372C522.2 375.314 524.886 378 528.2 378Z" fill="#FAF6EB"/>
<path fill-rule="evenodd" clip-rule="evenodd" d="M336.9 90.9L345.4 104.5C334.6 90.9 331.2 129.8 303.3 129.8C302.5 129.8 287.5 133.6 287.6 132.6C287.7 131.3 290 131.5 290.9 130.6C293 128.4 293.7 126 294.2 123.2C294.9 119.7 291.9 112.5 294.8 109.8C299.6 105.4 306.4 90.5 312 91L336.9 90.9Z" fill="#2D0B8D" stroke="#2D0B8D" stroke-width="2.13" stroke-linecap="round" stroke-linejoin="round"/>
<path d="M454.1 230.7C458 233.2 460.3 236.6 462.8 240.5" stroke="#2D0B8D" stroke-width="2.13" stroke-linecap="round" stroke-linejoin="round"/>
<path d="M295.8 438.4L368.9 486.9L327.4 545.4" stroke="#FAF6EB" stroke-width="2.13" stroke-linecap="round" stroke-linejoin="round"/>
<path d="M346.2 662.9C359.5 662.4 360.4 669.7 360.4 669.7L414 607.6" stroke="#FAF6EB" stroke-width="2.13" stroke-linecap="round" stroke-linejoin="round"/>
<path d="M549.9 250C549.7 250 551 253.2 554.6 254.8C558.2 256.5 563 255.9 564.4 256.6" stroke="#2D0B8D" stroke-width="2.13" stroke-linecap="round" stroke-linejoin="round"/>
<path d="M176.8 360.8C176.7 360.7 179.8 359.4 183.5 360.9C187.2 362.4 190.1 366.2 191.5 366.7" stroke="#2D0B8D" stroke-width="2.13" stroke-linecap="round" stroke-linejoin="round"/>
<path d="M574.8 239.6C580.6 240.4 585.4 239 591.1 238.7" stroke="#2D0B8D" stroke-width="2.13" stroke-linecap="round" stroke-linejoin="round"/>
<path d="M186.6 385.9C191.2 389.5 193.5 393.9 197.2 398.2" stroke="#2D0B8D" stroke-width="2.13" stroke-linecap="round" stroke-linejoin="round"/>
<path fill-rule="evenodd" clip-rule="evenodd" d="M308.4 93.3001C307.1 92.5001 305.1 89.3001 303.9 89.0001C298.5 87.8001 285.6 82.7001 279 89.2001C272.4 95.7001 277.1 99.8001 277.1 99.8001C277.1 99.8001 260.9 106.5 278.8 119.6C280.9 121.2 278.7 122.8 281.4 123.2C283.5 123.5 285.6 123.5 287.8 123.6" fill="#2D0B8D"/>
<path d="M308.4 93.3001C307.1 92.5001 305.1 89.3001 303.9 89.0001C298.5 87.8001 285.6 82.7001 279 89.2001C272.4 95.7001 277.1 99.8001 277.1 99.8001C277.1 99.8001 260.9 106.5 278.8 119.6C280.9 121.2 278.7 122.8 281.4 123.2C283.5 123.5 285.6 123.5 287.8 123.6" stroke="#2D0B8D" stroke-width="2.13" stroke-linecap="round" stroke-linejoin="round"/>
<path d="M217.3 263.5C200.1 267.8 185.5 279.3 171 289.4C160.9 296.4 158.2 312.5 157 323.8" stroke="#2D0B8D" stroke-width="2.13" stroke-linecap="round" stroke-linejoin="round"/>
<path d="M242.6 245.2C230.4 262 236.6 255.6 229.3 275.3" stroke="#2D0B8D" stroke-width="2.13" stroke-linecap="round" stroke-linejoin="round"/>
<path d="M239.1 302.7C235.1 308.8 232.1 329.2 243.3 337.1C255.9 345.9 265 342.5 278.4 338.5C282.3 337.3 291.9 332.1 288.2 326.6C274.7 306.4 247 349.2 282.6 347.6C289 347.3 295.2 345.7 301.5 344.8" stroke="#2D0B8D" stroke-width="2.13" stroke-linecap="round" stroke-linejoin="round"/>
<path d="M394.2 307.9C394.2 315.9 390.6 323.5 387.9 331" stroke="#2D0B8D" stroke-width="2.13" stroke-linecap="round" stroke-linejoin="round"/>
<path d="M399.2 319.8C401.5 341.4 390.4 346.1 390.4 346.1" stroke="#2D0B8D" stroke-width="2.13" stroke-linecap="round" stroke-linejoin="round"/>
<path d="M401.8 270.5C408.4 275.2 416.1 278.3 423.5 281.7" stroke="#2D0B8D" stroke-width="2.13" stroke-linecap="round" stroke-linejoin="round"/>
<path d="M394.9 260.3C395.1 264.1 400.6 269.2 401.8 275.7C402.5 279.5 397.2 284.8 400.3 287.9" stroke="#2D0B8D" stroke-width="2.13" stroke-linecap="round" stroke-linejoin="round"/>
<path d="M464.2 282.4C487 282.4 513 276.8 534.3 267.7" stroke="#2D0B8D" stroke-width="2.13" stroke-linecap="round" stroke-linejoin="round"/>
<path d="M495.7 268.4C509.8 265.1 523.4 259.9 537.1 255.1" stroke="#2D0B8D" stroke-width="2.13" stroke-linecap="round" stroke-linejoin="round"/>
<path fill-rule="evenodd" clip-rule="evenodd" d="M659.2 591.6H647V631.1H659.3L659.2 591.6Z" fill="#2D0B8D" stroke="#2D0B8D" stroke-width="2.13" stroke-linecap="round" stroke-linejoin="round"/>
<path fill-rule="evenodd" clip-rule="evenodd" d="M456.6 594.1H444.8V631.4H456.6V594.1Z" fill="#2D0B8D" stroke="#2D0B8D" stroke-width="2.13" stroke-linecap="round" stroke-linejoin="round"/>
<path fill-rule="evenodd" clip-rule="evenodd" d="M664.8 582.7H438.7V600.2H664.8V582.7Z" fill="#2D0B8D" stroke="#2D0B8D" stroke-width="2.13" stroke-linecap="round" stroke-linejoin="round"/>
<path fill-rule="evenodd" clip-rule="evenodd" d="M695.6 621H431.9V754.1H695.6V621V621Z" fill="#2D0B8D" stroke="#2D0B8D" stroke-width="2.13" stroke-linecap="round" stroke-linejoin="round"/>
<path d="M634.5 620L633.4 759" stroke="#FAF6EB" stroke-width="2.13" stroke-linecap="round" stroke-linejoin="round"/>
<path d="M600 696C600 686.5 591.7 678.9 581.5 678.9C571.3 678.9 563 686.6 563 696C563 705.4 571.3 713.1 581.5 713.1C591.7 713.1 600 705.4 600 696Z" stroke="#FAF6EB" stroke-width="2.13" stroke-linecap="round" stroke-linejoin="round"/>
<path d="M494.2 696C494.2 681.1 481.2 669.1 465.1 669.1C449 669 436 681.1 436 696C436 710.9 449 722.9 465.1 722.9C481.2 722.9 494.2 710.9 494.2 696Z" stroke="#FAF6EB" stroke-width="2.13" stroke-linecap="round" stroke-linejoin="round"/>
<path d="M634.2 649.6L430.8 649.1" stroke="#FAF6EB" stroke-width="2.13" stroke-linecap="round" stroke-linejoin="round"/>
<path d="M604 628.7H454.6V637.6H604V628.7Z" stroke="#FAF6EB" stroke-width="2.13" stroke-linecap="round" stroke-linejoin="round"/>
<path d="M680.7 659.2C680.7 652 674.4 646.2 666.7 646.2C658.9 646.2 652.6 652 652.6 659.2C652.6 666.4 658.9 672.2 666.7 672.2C674.4 672.3 680.7 666.4 680.7 659.2Z" stroke="#FAF6EB" stroke-width="2.13" stroke-linecap="round" stroke-linejoin="round"/>
<path d="M613.1 696C613.1 679.9 599 666.8 581.5 666.8C564.1 666.8 549.9 679.9 549.9 696C549.9 712.1 564 725.2 581.5 725.2C598.9 725.2 613.1 712.1 613.1 696Z" stroke="#FAF6EB" stroke-width="2.13" stroke-linecap="round" stroke-linejoin="round"/>
<path d="M481.5 696C481.5 687.6 474.1 680.8 465.1 680.8C456 680.8 448.6 687.6 448.6 696C448.6 704.4 456 711.2 465.1 711.2C474.2 711.2 481.5 704.4 481.5 696Z" stroke="#FAF6EB" stroke-width="2.13" stroke-linecap="round" stroke-linejoin="round"/>
<path fill-rule="evenodd" clip-rule="evenodd" d="M540.4 658.7H503.8V749H540.4V658.7Z" fill="#FAF6EB" stroke="#2D0B8D" stroke-width="2.13" stroke-linecap="round" stroke-linejoin="round"/>
<path d="M654.8 752.3C648.2 737 642.1 728.6 643.6 722.4C645.6 714.3 649.4 704.7 652.9 705.8C657 710.3 658.2 721.1 656.4 724.7C656.7 729.9 668.1 732.3 669.3 743C656.8 745.2 654.8 752.3 654.8 752.3Z" fill="#180746"/>
<path d="M696.2 740.1C694.9 726.3 724.8 707.7 726.1 706.8C727.4 704.4 730.5 691.6 737.6 685.6C742.1 681.6 748.8 681.4 750.5 685.4C750.6 687.2 747.1 687.5 745.4 693.2C743.7 698.9 741.4 707.8 743.7 719.4C731.1 731.6 707.7 744.1 707.2 743.9C700.6 742.8 696.2 740.1 696.2 740.1Z" fill="#180746"/>
<path d="M606.4 749C601.8 751 598.2 753.7 593.3 752.8C591.1 752.3 591 755.8 595.4 759.1C599.7 762.5 603.1 764.8 606 763.3C609.2 756.5 606.4 749 606.4 749Z" fill="#180746"/>
<path d="M765 736C765.5 737 770.9 745.6 768.7 759.5C767.6 766.2 765 771.7 760.2 776.2C755 781.1 747.3 784.9 736.3 788.2C723.1 792.1 688.3 791.8 661 790.9C643.8 790.3 629.6 789.4 625.6 789C615.4 788 605.4 775.7 602.9 760.1C600.5 745.1 607.9 740.1 614 737C624 732 636.9 722 643.4 731.9C648 738.9 649.9 741.3 654.6 742.1C657.3 742.6 679 736.9 709.3 738.5C709.3 738.5 705.4 730.6 717.6 718.8C729.8 707 746.9 712 753.2 717.5C751.7 714.3 753.5 699.1 756.6 694.1C762.9 683.9 771 690.1 769.3 693.8C767.6 697.5 767.1 712.5 769.3 722C771.3 731.4 773 735.5 765 736Z" fill="#180746"/>
<path d="M620.7 769.1C615.7 772.4 607.7 777.3 605 786C606 787.7 613.4 789.4 617.8 789.5C622.5 789.6 629.5 788.6 631.5 786.8C633.5 784.2 629 763.7 620.7 769.1Z" fill="#180746"/>
<path d="M621 777.9C618.4 777.5 611.7 783.4 611.4 784.9C613.8 786.6 624.9 785.4 625.5 784.4C625.7 782.8 621 777.9 621 777.9Z" fill="#2D0B8D" stroke="#2D0B8D" stroke-width="2.13" stroke-linecap="round" stroke-linejoin="round"/>
<path d="M669.5 757.8C672.8 754.4 674.3 754.6 671.5 752.1C662.5 744 660 738.1 660 734.5C660 730.8 669.7 723.6 676.9 724.4C683.1 725.1 689.9 724.3 690.8 727.4C688.8 733.7 683.7 736.2 680 738.1C690.8 740.5 698.2 746 699 748.4C700.3 754.1 692.3 767.3 685.7 769.5C679.1 771.6 665.2 762.3 669.5 757.8Z" fill="#180746"/>
<path d="M750.4 779.1C756.5 777.6 768.1 779.6 772.7 776.8C783.3 770.3 790.3 784.4 789.4 790.6C788.5 796.8 787 803.1 788 809.3C789.3 816.9 794.5 823.4 800.9 827.7C807.3 832 814.9 834.2 822.4 835.6C820.7 833.6 819 831.6 817.4 829.6C822.7 832.9 829.8 834.3 835.4 831.4C841 828.5 844 820.7 840.5 815.5C837.4 810.9 831 810 825.5 810.1C819.9 810.1 813.9 810.6 809.3 807.3C802.6 802.5 802.8 792.7 799.9 784.9C801.3 785.7 802.6 786.5 804 787.4C800.1 775.2 794.3 761.9 782.4 757.1C775.3 754.2 765.3 754.7 759 759C752.7 763.3 750.3 771.4 750.4 779.1Z" fill="#180746"/>
<path d="M642.9 745.9C643.3 747.2 634.4 754.9 634.4 754.9C629.1 756.5 628.4 753.1 626.1 749C624.3 745.8 624.4 737.2 625.5 733.7C626.7 729.5 631.3 728.4 632.9 730C632.9 730 637.9 734.2 640.7 736.6C641.9 737 645.5 741.6 642.9 745.9Z" fill="#180746"/>
<path d="M624 740.4C625.3 739.8 626.1 738.6 625.7 737.7C625.3 736.8 623.9 736.5 622.6 737C621.3 737.5 620.5 738.8 620.9 739.7C621.3 740.7 622.7 741 624 740.4Z" fill="#2D0B8D" stroke="#2D0B8D" stroke-width="2.13" stroke-linecap="round" stroke-linejoin="round"/>
<path d="M630.7 756.2C632 755.6 632.8 754.4 632.4 753.5C632 752.6 630.6 752.3 629.3 752.8C628 753.4 627.2 754.6 627.6 755.5C628 756.4 629.3 756.7 630.7 756.2Z" fill="#2D0B8D" stroke="#2D0B8D" stroke-width="2.13" stroke-linecap="round" stroke-linejoin="round"/>
<path d="M633.5 743.5C630.3 741.8 627.7 739.6 629.8 744.6C631.9 749.7 632.7 747.8 633.5 743.5Z" fill="#2D0B8D" stroke="#2D0B8D" stroke-width="2.13" stroke-linecap="round" stroke-linejoin="round"/>
<path d="M636.8 746.5C637.2 745.7 637.2 744.8 636.9 744.1C636.9 744 636.8 744 636.8 743.9C636.5 743.4 636.2 742.9 635.2 742.6C635.6 741.8 635.4 741 635.2 740.3C634.9 739.5 634.2 738.8 633.3 738.4" stroke="#2D0B8D" stroke-width="2.13" stroke-linecap="round" stroke-linejoin="round"/>
<path d="M632.8 743.8L634.6 743.1" stroke="#2D0B8D" stroke-width="2.13" stroke-linecap="round" stroke-linejoin="round"/>
<path d="M687.7 731.9C685.8 734.9 680.7 736.9 679.9 738C679.1 739.3 693.5 745.2 698.1 751.1C693.3 759.6 686.9 767.5 678.8 773" stroke="#2D0B8D" stroke-width="2.13" stroke-linecap="round" stroke-linejoin="round"/>
<path d="M662.3 731.5C659.8 733.5 659.3 734.1 659.2 737.3C659.1 738.7 669.7 748.7 671.4 753.5" stroke="#2D0B8D" stroke-width="2.13" stroke-linecap="round" stroke-linejoin="round"/>
<path d="M743.6 712.8C736.3 714.9 725.6 713.9 723.3 721.1C720.5 730.1 720.4 740 723.3 749" stroke="#2D0B8D" stroke-width="2.13" stroke-linecap="round" stroke-linejoin="round"/>
<path d="M723.3 749.3C717.2 750.9 711.1 752.5 705 754.1" stroke="#2D0B8D" stroke-width="2.13" stroke-linecap="round" stroke-linejoin="round"/>
<path d="M651.6 749.3C651 751.7 658 768.6 657.4 771C657.1 772.1 656.8 773.3 655.9 773.9C655 774.5 653.4 774 653.4 772.9C653.1 774.4 652.7 776 651.5 776.9C650.3 777.8 648 777 648.2 775.5C648.3 776.8 647.5 778.1 646.3 778.5C645.1 778.9 643.6 778.4 643 777.4C643.4 778.7 642.5 780.2 641.4 780.9C640.3 781.6 638.8 781.8 637.4 782C633 782.5 628.6 782.6 624.2 782.4" stroke="#2D0B8D" stroke-width="2.13" stroke-linecap="round" stroke-linejoin="round"/>
<path d="M760.2 776.2C755 781.1 747.3 784.9 736.3 788.2C723.1 792.1 688.3 791.8 661 790.9C662.4 787 664.9 783.4 668 781.4C674.9 777 680.8 782.7 700.5 782.3C709.3 782.1 714.8 782 721.4 779.2C733.8 773.9 734.8 765.5 742.3 765C748.6 764.5 756.1 769.9 760.2 776.2Z" fill="#2D0B8D" stroke="#2D0B8D" stroke-width="2.13" stroke-linecap="round" stroke-linejoin="round"/>
<path fill-rule="evenodd" clip-rule="evenodd" d="M500.2 469.7C495.8 500.8 431.5 584.6 392.9 632.7C387.1 626.1 383.4 617.9 384 610.6C385.8 586.9 434.1 578.9 430.7 556.1C428.9 543.9 416.6 538.5 419.1 529.9C423.1 516.3 455.4 523.3 468.4 502.8C469.3 501.4 476.1 490.3 472.4 480.1C467.7 467.1 449.8 466.6 448.8 456.5C448.1 448.9 457.9 446.8 457.7 437.8C457.4 428.5 427.7 419 422.1 419.1C404.5 419.6 381.8 398.1 384.8 380.9C386.2 372.7 393.2 366.7 400.4 362.7C448.4 404.5 502.8 451.5 500.2 469.7Z" fill="#FAF6EB"/>
<path d="M514.2 149L500.3 93.3001L501.1 92.9001L497.4 78.1001L441.7 106.3L445.5 121.7L446.3 121.3L459 172.5C455.3 171.5 450.7 172.6 446.7 175.6C440.9 180.2 438.9 187.4 442.3 191.8C445.7 196.2 453.2 196.1 459.1 191.5C465 187 466.9 179.7 463.5 175.3C463.4 175.1 463.2 175 463 174.8L451.1 127L499 102.6L509.9 146.6C506.2 145.6 501.5 146.6 497.5 149.7C491.6 154.3 489.7 161.5 493.1 165.9C496.5 170.3 504 170.2 509.9 165.6C515.8 161 517.7 153.8 514.3 149.4C514.4 149.2 514.3 149.2 514.2 149ZM450.5 123.7L449.5 119.7L497.3 95.0001L498.4 99.3001L450.5 123.7Z" fill="#2D0B8D" stroke="#2D0B8D" stroke-width="2.13" stroke-linecap="round" stroke-linejoin="round"/>
<path d="M533 339.8C532.6 339.7 532.1 339.8 531.9 340.2C526.9 347.3 521.7 351.2 516.5 351.8C515.6 351.9 514.8 351.9 513.9 351.9C516.4 350.5 518.1 347.9 518.3 344.9C518.6 340.2 514.9 336.1 510.2 335.9C505.5 335.6 501.4 339.3 501.2 344C500.9 348.7 504.6 352.8 509.3 353C509.5 353 509.7 353 509.9 353C512.2 353.8 514.5 354.1 516.8 353.8C521.8 353.2 526.8 349.8 531.6 343.9L530.6 362.4C525.6 369.3 520.5 373.1 515.4 373.8C514.5 373.9 513.7 373.9 512.8 373.9C515.3 372.5 517 369.9 517.2 366.9C517.4 362.2 513.8 358.1 509.1 357.9C504.4 357.7 500.3 361.3 500.1 366C499.8 370.7 503.5 374.8 508.2 375C508.4 375 508.6 375 508.8 375C510.5 375.6 512.1 375.9 513.8 375.9C514.4 375.9 515 375.9 515.7 375.8C520.7 375.2 525.7 371.8 530.5 365.9L528.8 398.3L530.7 398.4L533.8 340.9C533.7 340.3 533.4 339.9 533 339.8Z" fill="#2D0B8D" stroke="#2D0B8D" stroke-width="2.13" stroke-linecap="round" stroke-linejoin="round"/>
<path d="M578.7 294.1C577.3 307.6 582.7 320.9 589.3 332.8C595.9 344.7 603.9 355.9 608.5 368.7C613.1 381.5 613.8 396.6 606.2 407.9C596.6 422.1 577.4 425.9 564.3 437C550.3 448.8 544.6 468.4 545.7 486.6C546.8 504.9 553.9 522.3 561.9 538.8" stroke="#2D0B8D" stroke-width="2.13" stroke-linecap="round" stroke-linejoin="round"/>
<path d="M609.8 436.1C599.4 437.8 589.8 444.1 584 452.9C578.2 461.8 576.4 473.1 579 483.3" stroke="#2D0B8D" stroke-width="2.13" stroke-linecap="round" stroke-linejoin="round"/>
<path d="M616.1 284.9C609.5 307.6 616.3 331.7 623.2 354.3" stroke="#2D0B8D" stroke-width="2.13" stroke-linecap="round" stroke-linejoin="round"/>
<path d="M618.6 190.8C630.9 195.5 638.6 208.3 640.5 221.3C642.4 234.3 639.5 247.5 636 260.1C632.5 272.7 628.4 285.4 627.8 298.5C627.5 304.6 628.9 312 634.6 314.2" stroke="#2D0B8D" stroke-width="2.13" stroke-linecap="round" stroke-linejoin="round"/>
<path d="M416.4 376.6C452.5 404.4 487 444.1 487 444.1C487 444.1 504.1 459.7 498.4 477.2C498.9 488.5 454.7 551.6 454.7 551.6" stroke="#2D0B8D" stroke-width="2.13" stroke-linecap="round" stroke-linejoin="round"/>
<path fill-rule="evenodd" clip-rule="evenodd" d="M310.2 671L277.6 660.8L267.3 642.7L233 665.6L289.8 739.7L318.9 777.7C318.9 777.7 347.4 761.7 326.7 734.7C322.4 729.2 310.2 671 310.2 671Z" fill="#180746" stroke="#2D0B8D" stroke-width="2.13" stroke-linecap="round" stroke-linejoin="round"/>
<path d="M310.2 671L277.6 660.8L267.3 642.7L233 665.6L289.8 739.7L318.9 777.7C318.9 777.7 347.4 761.7 326.7 734.7C322.4 729.2 310.2 671 310.2 671Z" fill="#180746"/>
<path fill-rule="evenodd" clip-rule="evenodd" d="M274.4 734.4C283.6 736.6 312.8 739.8 312.8 739.8L333.6 727.3C333.6 727.3 347.9 783.7 321.1 784C305.5 784.2 293.4 769.8 283.6 760.2C277.5 754.2 275 747.9 273.4 739.9" fill="#180746"/>
<path d="M274.4 734.4C283.6 736.6 312.8 739.8 312.8 739.8L333.6 727.3C333.6 727.3 347.9 783.7 321.1 784C305.5 784.2 293.4 769.8 283.6 760.2C277.5 754.2 275 747.9 273.4 739.9" stroke="#2D0B8D" stroke-width="2.13" stroke-linecap="round" stroke-linejoin="round"/>
<path d="M310.2 671L277.6 660.8L267.3 642.7L233 665.6L289.8 739.7L318.9 777.7C318.9 777.7 347.4 761.7 326.7 734.7C322.4 729.2 310.2 671 310.2 671Z" stroke="#2D0B8D" stroke-width="2.13" stroke-linecap="round" stroke-linejoin="round"/>
<path d="M310.2 671L277.6 660.8L267.3 642.7L233 665.6L289.8 739.7L318.9 777.7C318.9 777.7 347.4 761.7 326.7 734.7C322.4 729.2 310.2 671 310.2 671Z" fill="#180746" stroke="#2D0B8D" stroke-width="2.13" stroke-linecap="round" stroke-linejoin="round"/>
<path fill-rule="evenodd" clip-rule="evenodd" d="M310.2 671L277.6 660.8L267.3 642.7L233 665.6L289.8 739.7L318.9 777.7C318.9 777.7 347.4 761.7 326.7 734.7C322.4 729.2 310.2 671 310.2 671Z" fill="#180746" stroke="#2D0B8D" stroke-width="2.13" stroke-linecap="round" stroke-linejoin="round"/>
<path d="M310.2 671L277.6 660.8L267.3 642.7L233 665.6L289.8 739.7L318.9 777.7C318.9 777.7 347.4 761.7 326.7 734.7C322.4 729.2 310.2 671 310.2 671Z" fill="#180746"/>
<path fill-rule="evenodd" clip-rule="evenodd" d="M274.4 734.4C283.6 736.6 312.8 739.8 312.8 739.8L333.6 727.3C333.6 727.3 347.9 783.7 321.1 784C305.5 784.2 293.4 769.8 283.6 760.2C277.5 754.2 275 747.9 273.4 739.9" fill="#180746"/>
<path d="M274.4 734.4C283.6 736.6 312.8 739.8 312.8 739.8L333.6 727.3C333.6 727.3 347.9 783.7 321.1 784C305.5 784.2 293.4 769.8 283.6 760.2C277.5 754.2 275 747.9 273.4 739.9" stroke="#2D0B8D" stroke-width="2.13" stroke-linecap="round" stroke-linejoin="round"/>
<path d="M310.2 671L277.6 660.8L267.3 642.7L233 665.6L289.8 739.7L318.9 777.7C318.9 777.7 347.4 761.7 326.7 734.7C322.4 729.2 310.2 671 310.2 671Z" stroke="#2D0B8D" stroke-width="2.13" stroke-linecap="round" stroke-linejoin="round"/>
<path d="M310.2 671L277.6 660.8L267.3 642.7L233 665.6L289.8 739.7L318.9 777.7C318.9 777.7 347.4 761.7 326.7 734.7C322.4 729.2 310.2 671 310.2 671Z" fill="#2D0B8D" stroke="#2D0B8D" stroke-width="2.13" stroke-linecap="round" stroke-linejoin="round"/>
<path d="M316.8 705.3L306.8 710" stroke="#FFFDFD" stroke-width="2.13" stroke-linecap="round" stroke-linejoin="round"/>
<path d="M319 714.6L310.4 719.4" stroke="#FFFDFD" stroke-width="2.13" stroke-linecap="round" stroke-linejoin="round"/>
<path d="M321.1 724.2L314.3 728.2" stroke="#FFFDFD" stroke-width="2.13" stroke-linecap="round" stroke-linejoin="round"/>
<path fill-rule="evenodd" clip-rule="evenodd" d="M239.3 661.1L276.9 634.5C276.9 634.5 305.7 663.5 316.9 674.1C323.4 680.2 319.3 690.8 308.4 689C300.7 687.8 284.9 679.1 284.9 679.1L262.2 691.5L239.3 661.1Z" fill="#180746" stroke="#2D0B8D" stroke-width="2.13" stroke-linecap="round" stroke-linejoin="round"/>
<path fill-rule="evenodd" clip-rule="evenodd" d="M307.5 677.1C309.2 675.9 311.6 676.2 312.8 677.9C314.1 679.5 313.6 681.8 311.9 682.9C310.2 684.1 307.8 683.8 306.5 682.2C305.4 680.5 305.8 678.3 307.5 677.1Z" fill="#180746" stroke="#2D0B8D" stroke-width="2.13" stroke-linecap="round" stroke-linejoin="round"/>
<path fill-rule="evenodd" clip-rule="evenodd" d="M241.5 658.4L265.7 689.7L263.6 695.9L325.2 774.7L315.9 781.1L228 667.7L241.5 658.4Z" fill="#180746" stroke="#2D0B8D" stroke-width="2.13" stroke-linecap="round" stroke-linejoin="round"/>
<path d="M743.6 256.2H681V415.9" stroke="#2D0B8D" stroke-width="2.13" stroke-linecap="round" stroke-linejoin="round"/>
<path d="M753.6 267.3H692.5V408.1" stroke="#2D0B8D" stroke-width="2.13" stroke-linecap="round" stroke-linejoin="round"/>
<path d="M291.4 195L338.5 228.6L357.6 199" stroke="#2D0B8D" stroke-width="2.13" stroke-linecap="round" stroke-linejoin="round"/>
<path d="M724.3 434.5L823 377.6L724.3 320.6V434.5Z" fill="#2D0B8D" stroke="#2D0B8D" stroke-width="2.13" stroke-linecap="round" stroke-linejoin="round"/>
</svg>
