<svg width="957" height="905" viewBox="0 0 957 905" fill="none" xmlns="http://www.w3.org/2000/svg">
<path fill-rule="evenodd" clip-rule="evenodd" d="M256.791 788.646C256.791 788.646 231.491 828.946 234.591 837.346C238.091 847.046 263.591 876.346 263.591 876.346L336.291 874.446L303.891 863.446L286.391 833.846L307.491 795.246L256.791 788.646Z" fill="#0A9B83" stroke="#2D0B8D" stroke-width="2.13" stroke-linecap="round" stroke-linejoin="round"/>
<path fill-rule="evenodd" clip-rule="evenodd" d="M350.091 873.646L305.591 874.646L220.391 873.446L228.691 829.746L266.591 828.746C266.591 828.746 265.291 818.746 275.191 819.146C282.791 819.446 305.191 842.646 325.891 849.046C354.291 857.846 350.091 873.646 350.091 873.646Z" fill="#180746"/>
<path fill-rule="evenodd" clip-rule="evenodd" d="M349.591 867.946L253.291 867.446C250.491 867.446 248.291 869.446 248.191 871.946V873.546C248.191 876.046 250.391 878.046 253.191 878.046L349.491 878.546C352.291 878.546 354.491 876.546 354.591 874.046V872.446C354.591 869.946 352.391 867.946 349.591 867.946Z" fill="#2D0B8D" stroke="#2D0B8D" stroke-width="2.13" stroke-linecap="round" stroke-linejoin="round"/>
<path fill-rule="evenodd" clip-rule="evenodd" d="M261.391 878.146L215.891 877.446L218.691 853.546C218.691 853.546 241.791 852.246 249.691 859.646C257.691 867.246 261.391 878.146 261.391 878.146Z" fill="#2D0B8D" stroke="#2D0B8D" stroke-width="2.13" stroke-linecap="round" stroke-linejoin="round"/>
<path fill-rule="evenodd" clip-rule="evenodd" d="M330.391 850.446L276.991 817.746C276.991 817.746 268.491 819.046 266.291 822.546C264.091 825.946 267.991 831.446 267.991 831.446C267.991 831.446 298.491 851.846 311.491 855.946C320.591 858.846 330.391 850.446 330.391 850.446Z" fill="#2D0B8D" stroke="#2D0B8D" stroke-width="2.13" stroke-linecap="round" stroke-linejoin="round"/>
<path d="M282.391 837.546L263.792 872.146" stroke="#2D0B8D" stroke-width="2.13" stroke-linecap="round" stroke-linejoin="round"/>
<path d="M228.691 829.746L224.191 861.446" stroke="#2D0B8D" stroke-width="2.13" stroke-linecap="round" stroke-linejoin="round"/>
<path d="M519.691 421.546C485.591 471.246 439.491 524.046 362.291 565.546C285.091 607.046 176.291 637.146 128.191 593.846C79.9912 551.046 93.1912 434.246 101.691 343.746C110.191 253.746 114.591 190.146 141.091 137.346C167.591 85.1461 215.791 43.6461 265.991 39.2461C315.591 34.7461 367.091 67.9461 447.291 68.6461C527.591 69.3461 636.591 37.5461 666.691 67.1461C696.791 96.7461 647.491 187.746 611.891 256.246C576.391 324.646 553.791 371.746 519.691 421.546Z" fill="#180746"/>
<path fill-rule="evenodd" clip-rule="evenodd" d="M673.791 59.7462C666.891 52.8462 605.591 96.5462 605.591 96.5462C605.591 96.5462 567.091 206.046 557.591 227.446C547.991 249.046 513.191 305.846 513.191 305.846C513.191 305.846 442.891 301.246 409.591 330.446C390.091 347.546 367.291 410.746 367.291 410.746C367.291 410.746 335.691 416.546 318.091 400.446C307.991 391.246 296.991 364.346 289.791 351.846C284.391 342.646 281.391 346.046 281.391 346.046L288.891 395.646L270.891 391.846L290.791 423.846C290.791 423.846 357.091 481.446 383.191 464.246C409.291 447.046 429.491 416.546 429.491 416.546L429.591 489.646L552.491 448.946L553.891 369.646C553.891 369.646 596.291 303.146 615.591 232.746C624.691 199.346 635.191 131.546 635.191 131.546C635.191 131.546 675.491 118.946 680.491 88.4462C683.691 68.7462 682.091 68.0462 673.791 59.7462Z" fill="#0A9B83" stroke="#2D0B8D" stroke-width="2.13" stroke-linecap="round" stroke-linejoin="round"/>
<path d="M670.191 69.4461C666.191 67.3461 661.691 66.9461 657.791 67.8461C655.491 68.3461 653.491 69.2461 651.791 70.3461C651.691 69.3461 651.491 68.3461 651.391 67.2461C651.191 65.2461 650.991 63.2461 650.791 61.2461C652.691 59.5461 654.491 57.8461 656.191 55.8461C660.291 51.2461 663.291 45.6461 664.191 39.4461C665.091 33.3461 665.791 27.1461 664.091 21.5461C663.691 20.0461 663.191 19.1461 662.291 17.2461C661.991 16.5461 661.391 15.2461 660.591 14.1461C659.791 13.0461 658.291 12.1461 656.591 12.2461C653.291 12.6461 651.691 14.5461 650.591 15.9461C650.091 16.7461 649.691 17.4461 649.291 18.2461C649.091 18.6461 648.991 18.9461 648.791 19.2461L648.691 19.4461C648.591 19.6461 648.591 19.6461 648.591 19.8461L648.391 20.4461C647.391 23.5461 647.391 26.4461 647.491 29.2461C647.491 31.9461 647.591 34.6461 647.591 37.3461C647.491 41.5461 647.691 45.7461 647.891 49.8461C646.391 51.5461 644.891 53.1461 643.191 54.6461L640.191 57.3461C639.191 58.2461 638.091 59.2461 636.991 60.3461C632.791 64.6461 629.191 69.6461 626.991 75.4461C624.691 81.1461 624.491 88.1461 627.191 93.8461C629.791 99.5461 634.591 103.546 639.691 105.846C644.691 108.046 649.891 108.946 654.991 108.846C655.391 111.546 655.691 114.046 655.991 116.546C657.291 123.046 654.791 128.646 650.691 130.446C647.691 131.646 644.891 130.846 643.091 129.546C643.291 129.546 643.491 129.646 643.691 129.646C646.691 129.846 649.291 127.646 649.491 124.646C649.691 121.646 647.491 119.146 644.491 118.846C641.491 118.646 638.991 120.846 638.691 123.846C638.691 124.046 638.691 124.346 638.691 124.546C638.791 125.646 639.191 126.746 639.891 127.546C640.091 127.846 640.191 128.046 640.491 128.346C641.291 129.446 642.591 130.646 644.491 131.446C646.391 132.246 648.691 132.646 651.291 131.946C653.891 131.246 656.391 129.146 657.691 126.146C658.291 124.646 658.791 123.046 658.891 121.346C658.891 119.546 658.791 117.946 658.591 116.246C658.291 113.846 657.991 111.346 657.591 108.746C662.091 108.346 666.491 107.046 670.391 105.046C674.791 102.546 678.291 98.5461 679.691 93.8461C681.291 89.1461 680.991 84.1461 679.291 79.7461C677.491 75.3461 674.291 71.5461 670.191 69.4461ZM652.691 26.0461C653.591 23.9461 655.391 18.1461 658.691 19.3461C660.791 20.1461 660.891 22.9461 660.791 24.8461C660.491 29.1461 659.291 33.4461 656.991 37.1461C654.791 40.7461 652.591 44.0461 650.091 47.3461C649.991 44.1461 649.991 40.8461 650.191 37.6461C650.391 33.6461 651.291 29.6461 652.691 26.0461ZM641.791 101.946C637.691 99.5461 634.191 95.9461 632.691 91.6461C631.191 87.3461 631.791 82.7461 633.891 78.4461C636.091 74.2461 639.591 70.5461 643.391 67.2461C644.291 66.4461 645.291 65.6461 646.391 64.8461L647.991 63.6461C648.391 63.3461 648.791 63.0461 649.091 62.7461C649.291 64.3461 649.391 65.9461 649.591 67.4461C649.791 68.8461 649.891 70.1461 650.091 71.5461C646.791 74.1461 644.591 77.6461 643.691 80.7461C642.191 86.0461 643.091 90.1461 643.991 92.6461C644.391 93.9461 644.891 94.8461 645.191 95.4461C645.491 96.0461 645.691 96.3461 645.691 96.3461C645.691 96.3461 645.391 94.9461 645.291 92.3461C645.191 89.8461 645.291 86.0461 647.291 82.1461C648.091 80.5461 649.291 78.9461 650.791 77.6461C651.491 83.3461 652.291 88.8461 652.991 94.0461C653.491 98.0461 654.091 101.946 654.591 105.646C650.091 105.446 645.691 104.246 641.791 101.946ZM676.691 93.0461C675.891 97.0461 673.091 100.846 669.091 102.846C665.591 104.746 661.391 105.646 657.091 105.746C656.491 101.946 655.891 97.9461 655.191 93.7461C654.291 88.2461 653.391 82.3461 652.591 76.2461C654.391 75.0461 656.491 74.0461 658.991 73.6461C664.491 72.8461 670.991 75.3461 674.591 81.7461C676.391 84.9461 677.391 89.0461 676.691 93.0461Z" fill="#2D0B8D" stroke="#2D0B8D" stroke-width="2.13" stroke-linecap="round" stroke-linejoin="round"/>
<path fill-rule="evenodd" clip-rule="evenodd" d="M690.091 58.3461L689.291 56.4461C688.091 53.5461 684.791 52.1461 681.891 53.3461L664.991 59.8461C662.091 60.9461 660.691 64.1461 661.891 67.0461L662.591 68.9461C663.791 71.8461 667.091 73.2461 669.991 72.0461L686.891 65.5461C689.891 64.3461 691.291 61.1461 690.091 58.3461Z" fill="#0A9B83" stroke="#2D0B8D" stroke-width="2.13" stroke-linecap="round" stroke-linejoin="round"/>
<path fill-rule="evenodd" clip-rule="evenodd" d="M690.191 71.5461L689.391 69.6461C688.191 66.7461 684.892 65.3461 681.992 66.5461L665.092 73.0461C662.192 74.1461 660.792 77.3461 661.992 80.2461L662.792 82.1461C663.992 85.0461 667.291 86.4461 670.191 85.2461L687.092 78.7461C689.992 77.6461 691.391 74.4461 690.191 71.5461Z" fill="#0A9B83" stroke="#2D0B8D" stroke-width="2.13" stroke-linecap="round" stroke-linejoin="round"/>
<path fill-rule="evenodd" clip-rule="evenodd" d="M689.591 86.1461L688.791 84.2461C687.591 81.3461 684.291 79.9461 681.391 81.1461L664.491 87.6461C661.591 88.7461 660.191 91.9461 661.391 94.8461L662.191 96.7461C663.391 99.6461 666.691 101.046 669.591 99.8461L686.491 93.3461C689.291 92.2461 690.691 89.0461 689.591 86.1461Z" fill="#0A9B83" stroke="#2D0B8D" stroke-width="2.13" stroke-linecap="round" stroke-linejoin="round"/>
<path fill-rule="evenodd" clip-rule="evenodd" d="M630.292 119.646C631.292 112.646 632.292 98.5461 627.292 92.9461C622.292 87.3461 639.692 74.1461 634.792 68.0461C626.692 58.0461 607.292 96.4461 607.292 96.4461" fill="#0A9B83"/>
<path d="M630.292 119.646C631.292 112.646 632.292 98.5461 627.292 92.9461C622.292 87.3461 639.692 74.1461 634.792 68.0461C626.692 58.0461 607.292 96.4461 607.292 96.4461" stroke="#2D0B8D" stroke-width="2.13" stroke-linecap="round" stroke-linejoin="round"/>
<path fill-rule="evenodd" clip-rule="evenodd" d="M441.791 252.446C432.091 221.046 444.891 196.846 489.691 202.546C494.891 203.246 501.091 203.846 505.791 206.546C526.991 218.946 522.991 233.346 525.591 236.246C533.191 244.946 536.791 278.446 539.991 287.846L434.991 286.746L441.791 252.446Z" fill="#2D0B8D" stroke="#2D0B8D" stroke-width="2.13" stroke-linecap="round" stroke-linejoin="round"/>
<path fill-rule="evenodd" clip-rule="evenodd" d="M468.791 707.246C468.791 707.246 485.391 790.146 499.991 835.446C510.491 868.046 515.691 880.746 490.391 883.346C464.991 885.946 438.091 882.146 438.091 882.146L391.791 887.146C391.791 887.146 374.191 886.546 392.191 874.146C409.991 861.846 439.091 859.346 446.891 843.146C454.591 826.746 404.991 735.146 404.991 735.146L468.791 707.246Z" fill="#0A9B83" stroke="#2D0B8D" stroke-width="2.13" stroke-linecap="round" stroke-linejoin="round"/>
<path fill-rule="evenodd" clip-rule="evenodd" d="M746.491 482.846C746.491 482.846 784.591 444.246 805.991 415.746C823.191 392.746 825.191 383.946 844.091 392.946C861.391 401.146 929.591 371.046 934.491 386.146C940.091 403.446 874.891 424.646 832.791 454.346C801.391 476.446 790.591 510.946 790.591 510.946L746.491 482.846Z" fill="#0A9B83" stroke="#2D0B8D" stroke-width="2.13" stroke-linecap="round" stroke-linejoin="round"/>
<path fill-rule="evenodd" clip-rule="evenodd" d="M24.4913 643.846C18.4913 648.346 11.0913 653.346 7.09129 660.046C6.69129 660.646 0.19129 666.746 2.49129 667.646C11.2913 671.146 24.3913 655.446 30.2913 651.446C32.6913 649.846 34.8913 647.846 37.2913 646.246C38.2913 645.546 40.6913 642.946 40.2913 644.146C38.3913 649.846 29.4913 654.046 25.8913 658.846C19.0913 667.946 31.0913 663.246 34.7913 660.046C36.5913 658.546 38.4913 657.246 40.2913 655.746C42.6913 653.846 44.7913 651.646 46.9913 649.646C50.5913 646.346 54.4913 643.446 58.5913 640.746" fill="#0A9B83"/>
<path d="M24.4913 643.846C18.4913 648.346 11.0913 653.346 7.09129 660.046C6.69129 660.646 0.19129 666.746 2.49129 667.646C11.2913 671.146 24.3913 655.446 30.2913 651.446C32.6913 649.846 34.8913 647.846 37.2913 646.246C38.2913 645.546 40.6913 642.946 40.2913 644.146C38.3913 649.846 29.4913 654.046 25.8913 658.846C19.0913 667.946 31.0913 663.246 34.7913 660.046C36.5913 658.546 38.4913 657.246 40.2913 655.746C42.6913 653.846 44.7913 651.646 46.9913 649.646C50.5913 646.346 54.4913 643.446 58.5913 640.746" stroke="#2D0B8D" stroke-width="2.13" stroke-linecap="round" stroke-linejoin="round"/>
<path fill-rule="evenodd" clip-rule="evenodd" d="M169.891 216.546C170.091 205.346 152.091 199.946 136.891 208.246C121.691 216.546 120.791 240.746 118.091 245.846C103.091 274.446 125.591 297.146 160.091 301.446C170.091 302.646 202.891 289.346 201.591 277.046C200.291 264.646 163.591 270.746 160.991 259.446" fill="#2D0B8D"/>
<path d="M169.891 216.546C170.091 205.346 152.091 199.946 136.891 208.246C121.691 216.546 120.791 240.746 118.091 245.846C103.091 274.446 125.591 297.146 160.091 301.446C170.091 302.646 202.891 289.346 201.591 277.046C200.291 264.646 163.591 270.746 160.991 259.446" stroke="#2D0B8D" stroke-width="2.13" stroke-linecap="round" stroke-linejoin="round"/>
<path fill-rule="evenodd" clip-rule="evenodd" d="M112.891 519.346C112.891 519.346 103.291 628.146 93.7913 639.646C88.5913 645.946 20.4913 649.546 20.4913 649.546C20.4913 649.546 27.2913 654.646 27.5913 658.746C27.8913 662.846 25.0913 664.246 25.0913 664.246C25.0913 664.246 6.79126 658.946 4.59126 653.346C3.19126 649.746 18.3913 637.946 25.1913 633.946C42.6913 623.746 60.1913 623.346 64.1913 612.346C68.1913 601.346 77.0913 512.546 77.0913 512.546L112.891 519.346Z" fill="#0A9B83" stroke="#2D0B8D" stroke-width="2.13" stroke-linecap="round" stroke-linejoin="round"/>
<path fill-rule="evenodd" clip-rule="evenodd" d="M177.491 813.946C177.491 813.946 138.491 881.346 142.991 892.946L255.191 896.146L208.591 862.146L228.191 820.546L177.491 813.946Z" fill="#0A9B83" stroke="#2D0B8D" stroke-width="2.13" stroke-linecap="round" stroke-linejoin="round"/>
<path fill-rule="evenodd" clip-rule="evenodd" d="M496.791 273.646L496.391 301.246L503.391 309.346C503.391 309.346 506.791 336.846 495.891 343.246C483.991 350.346 457.191 336.446 448.091 334.146C439.891 332.046 452.991 314.846 452.991 314.846L453.891 283.146L453.091 270.846L496.791 273.646Z" fill="#0A9B83" stroke="#2D0B8D" stroke-width="2.13" stroke-linecap="round" stroke-linejoin="round"/>
<path fill-rule="evenodd" clip-rule="evenodd" d="M502.391 257.246C504.291 250.346 503.591 236.546 501.891 230.246C498.791 218.846 495.591 223.846 483.991 220.646C471.091 217.046 464.791 211.946 456.391 222.246C453.091 226.246 443.391 241.246 441.891 246.646C436.591 265.946 446.791 285.646 464.691 290.646C476.191 293.846 485.591 292.846 493.991 284.646C498.891 280.146 500.491 264.146 502.391 257.246Z" fill="#0A9B83" stroke="#2D0B8D" stroke-width="2.13" stroke-linecap="round" stroke-linejoin="round"/>
<path fill-rule="evenodd" clip-rule="evenodd" d="M476.391 255.446C477.291 252.746 474.791 249.546 470.891 248.246C466.991 246.946 463.091 248.046 462.191 250.746C461.291 253.446 463.791 256.646 467.691 257.946C471.691 259.246 475.491 258.146 476.391 255.446Z" fill="#FAFCFF" stroke="#2D0B8D" stroke-width="2.13" stroke-linecap="round" stroke-linejoin="round"/>
<path fill-rule="evenodd" clip-rule="evenodd" d="M453.091 244.746C453.991 242.046 451.491 238.846 447.591 237.546C443.691 236.246 439.791 237.346 438.891 240.046C437.991 242.746 440.491 245.946 444.391 247.246C448.391 248.546 452.191 247.346 453.091 244.746Z" fill="#FAFCFF" stroke="#2D0B8D" stroke-width="2.13" stroke-linecap="round" stroke-linejoin="round"/>
<path fill-rule="evenodd" clip-rule="evenodd" d="M492.791 304.446L495.591 276.246C495.591 276.246 472.891 271.246 467.391 277.146C461.991 283.046 467.691 302.446 467.691 302.446L481.391 304.546" fill="#0A9B83"/>
<path fill-rule="evenodd" clip-rule="evenodd" d="M516.091 254.346C510.691 263.946 501.591 242.346 501.591 242.346L464.891 233.646L462.291 214.946L453.691 235.846L440.591 235.546C440.591 235.546 450.991 209.546 453.591 207.046C464.291 196.846 482.491 197.346 494.291 207.146C504.191 215.346 527.291 234.546 516.091 254.346Z" fill="#2D0B8D" stroke="#2D0B8D" stroke-width="2.13" stroke-linecap="round" stroke-linejoin="round"/>
<path fill-rule="evenodd" clip-rule="evenodd" d="M498.791 259.246C501.391 256.146 506.491 259.246 507.491 262.246C509.491 268.446 504.791 278.946 495.091 272.646" fill="#0A9B83"/>
<path d="M498.791 259.246C501.391 256.146 506.491 259.246 507.491 262.246C509.491 268.446 504.791 278.946 495.091 272.646" stroke="#2D0B8D" stroke-width="2.13" stroke-linecap="round" stroke-linejoin="round"/>
<path fill-rule="evenodd" clip-rule="evenodd" d="M464.191 256.546C466.091 257.746 468.391 257.446 469.391 255.946C470.391 254.446 469.591 252.246 467.691 251.046C465.791 249.846 463.491 250.146 462.491 251.646C461.491 253.146 462.291 255.346 464.191 256.546Z" fill="#2D0B8D" stroke="#2D0B8D" stroke-width="2.13" stroke-linecap="round" stroke-linejoin="round"/>
<path fill-rule="evenodd" clip-rule="evenodd" d="M445.791 245.046C446.991 243.146 446.691 240.146 441.691 239.246C439.891 238.946 440.091 239.846 438.791 241.646C437.591 243.546 439.191 245.546 440.691 246.546C442.291 247.546 444.591 246.946 445.791 245.046Z" fill="#2D0B8D" stroke="#2D0B8D" stroke-width="2.13" stroke-linecap="round" stroke-linejoin="round"/>
<path fill-rule="evenodd" clip-rule="evenodd" d="M353.391 543.146C340.791 548.946 340.891 525.446 349.391 519.846C365.091 509.546 380.491 530.746 353.391 543.146Z" fill="#FAF6EB"/>
<path d="M501.391 265.346C501.191 265.546 500.991 265.746 500.891 266.046" stroke="#2D0B8D" stroke-width="2.13" stroke-linecap="round" stroke-linejoin="round"/>
<path fill-rule="evenodd" clip-rule="evenodd" d="M844.191 465.046C844.191 465.046 843.091 466.746 841.091 469.746C827.191 490.846 768.591 575.146 713.191 588.146C700.691 591.046 685.591 591.046 669.391 589.246C603.891 581.746 520.291 543.646 518.991 543.046L459.291 627.846L502.691 752.746L481.391 755.946L407.791 767.146C407.791 767.146 348.691 665.046 350.891 639.846C354.391 599.046 428.191 466.046 428.191 466.046L494.391 447.746L557.191 430.346L621.391 461.646L624.991 463.346L707.591 491.046L786.891 414.546L844.191 465.046Z" fill="#FAF6EB" stroke="#2D0B8D" stroke-width="2.13" stroke-linecap="round" stroke-linejoin="round"/>
<path fill-rule="evenodd" clip-rule="evenodd" d="M574.891 409.246C574.891 409.246 542.991 415.246 528.391 418.046C517.691 420.046 505.591 428.946 479.991 435.846C478.291 436.346 476.491 436.746 474.691 437.246C462.991 440.146 427.491 446.246 427.491 446.246L424.691 403.546L419.091 388.346C416.491 381.246 416.491 373.546 418.991 366.446L430.891 333.446L438.791 311.346L452.791 307.246L449.791 331.146L491.391 331.046L501.591 304.646L514.791 303.246L515.491 314.246C516.491 329.446 524.391 343.446 536.791 352.246L554.491 364.746L557.591 371.446L574.891 409.246Z" fill="#FAF6EB" stroke="#2D0B8D" stroke-width="2.13" stroke-linecap="round" stroke-linejoin="round"/>
<path fill-rule="evenodd" clip-rule="evenodd" d="M384.191 662.046C374.591 698.646 325.291 798.946 325.291 798.946L264.591 793.146L249.591 815.146L158.991 812.746L170.691 787.546L226.791 666.446L146.491 561.846L149.891 509.446L150.091 506.046L205.291 500.646L269.691 490.546C269.691 490.446 393.791 625.446 384.191 662.046Z" fill="#026767" stroke="#2D0B8D" stroke-width="2.13" stroke-linecap="round" stroke-linejoin="round"/>
<path fill-rule="evenodd" clip-rule="evenodd" d="M253.191 673.446C251.591 687.546 246.391 686.046 235.791 715.946C226.991 740.546 230.191 742.646 223.291 752.846C211.791 769.846 194.091 777.646 185.691 781.446C179.391 784.246 174.591 786.346 170.791 787.546L226.891 666.446L146.591 561.846L149.991 509.446C160.191 510.746 172.191 513.246 186.491 517.046C203.891 540.446 206.591 558.446 205.291 571.046C204.291 580.846 200.891 587.446 204.591 596.146C209.791 608.546 221.891 607.046 234.591 618.446C250.191 632.746 255.091 656.646 253.191 673.446Z" fill="#2D0B8D" stroke="#2D0B8D" stroke-width="2.13" stroke-linecap="round" stroke-linejoin="round"/>
<path fill-rule="evenodd" clip-rule="evenodd" d="M256.491 805.146C261.491 826.146 242.491 827.146 242.491 827.146L167.791 826.346C161.191 826.346 155.791 820.946 155.791 814.346C155.791 807.746 161.191 802.346 167.791 802.346" fill="#026767"/>
<path d="M256.491 805.146C261.491 826.146 242.491 827.146 242.491 827.146L167.791 826.346C161.191 826.346 155.791 820.946 155.791 814.346C155.791 807.746 161.191 802.346 167.791 802.346" stroke="#2D0B8D" stroke-width="2.13" stroke-linecap="round" stroke-linejoin="round"/>
<path fill-rule="evenodd" clip-rule="evenodd" d="M320.591 781.346C326.591 781.346 331.491 786.246 331.491 792.246C331.491 798.246 326.591 803.146 320.591 803.146H269.591C263.591 803.146 264.491 793.046 264.491 793.046" fill="#026767"/>
<path d="M320.591 781.346C326.591 781.346 331.491 786.246 331.491 792.246C331.491 798.246 326.591 803.146 320.591 803.146H269.591C263.591 803.146 264.491 793.046 264.491 793.046" stroke="#2D0B8D" stroke-width="2.13" stroke-linecap="round" stroke-linejoin="round"/>
<path fill-rule="evenodd" clip-rule="evenodd" d="M135.791 536.246L135.891 537.046L134.691 564.846L254.891 539.246L257.291 512.446C248.691 514.546 233.391 512.446 208.691 516.946C176.891 522.746 168.091 535.646 135.791 536.246Z" fill="#180746" stroke="#2D0B8D" stroke-width="2.13" stroke-linecap="round" stroke-linejoin="round"/>
<path fill-rule="evenodd" clip-rule="evenodd" d="M258.491 512.246L266.991 532.946L306.291 517.446L303.791 498.746C289.091 504.146 274.091 508.346 258.491 512.246Z" fill="#180746" stroke="#2D0B8D" stroke-width="2.13" stroke-linecap="round" stroke-linejoin="round"/>
<path fill-rule="evenodd" clip-rule="evenodd" d="M299.391 465.046L294.791 429.746L292.991 416.046L288.891 384.746L284.091 348.646C284.091 348.646 303.691 313.046 311.991 264.846C314.691 249.346 315.791 229.946 316.091 210.746C316.191 205.646 316.191 200.546 316.091 195.546C315.891 161.046 313.491 130.946 313.491 130.946L255.491 133.846C255.491 133.846 255.491 181.846 247.691 222.646C239.891 263.346 227.591 296.746 227.591 296.746L208.791 313.046L161.791 323.646C161.791 323.646 99.3913 336.046 89.7913 365.346C85.1913 379.246 81.3913 396.846 78.2913 414.146C77.6913 417.446 77.1913 420.646 76.6913 423.846C74.8913 434.646 73.4913 445.046 72.3913 453.846C71.8913 457.446 71.4913 460.746 71.1913 463.746C69.9913 473.646 69.3913 479.946 69.3913 479.946L50.7913 593.046L113.791 596.846L125.791 522.846L131.991 476.946L135.891 536.546C168.191 535.946 184.791 519.046 216.991 517.446C243.391 516.146 248.591 514.946 257.291 512.846C257.291 512.846 289.191 504.446 303.891 498.946L299.391 465.046Z" fill="#FAF6EB" stroke="#2D0B8D" stroke-width="2.13" stroke-linecap="round" stroke-linejoin="round"/>
<path d="M258.291 298.446L245.291 290.046L246.591 305.446L234.591 315.246L249.691 318.846L255.291 333.246L263.291 320.046L278.791 319.146L268.691 307.446L272.591 292.446L258.291 298.446Z" fill="#026767"/>
<path d="M316.091 210.746L312.891 210.146L311.691 211.146L305.091 216.646L304.591 206.546L295.991 201.146L305.491 197.546L307.891 187.746L313.191 194.446L314.191 195.646L315.991 195.546C316.191 200.546 316.191 205.646 316.091 210.746Z" fill="#026767"/>
<path d="M299.391 465.046C298.191 465.246 296.791 465.046 295.791 464.246L276.191 450.646L260.591 456.546L253.891 459.146C252.191 459.746 250.191 459.446 248.891 458.146C247.491 456.846 246.991 454.946 247.591 453.246L254.491 430.346L239.591 411.746C238.891 410.846 238.491 409.746 238.491 408.746C238.491 408.046 238.591 407.346 238.891 406.746C239.691 405.046 241.291 403.946 243.191 403.946L267.091 403.446L280.191 383.546C281.191 382.046 282.991 381.146 284.791 381.346C286.591 381.546 288.191 382.846 288.791 384.546L288.891 384.846L292.991 416.146L291.591 415.746C290.091 415.346 288.791 414.146 288.291 412.646L285.191 403.946L282.791 397.046L273.691 410.946C272.791 412.246 271.291 413.146 269.691 413.146L253.091 413.446L263.491 426.446C264.491 427.646 264.791 429.346 264.391 430.846L259.591 446.746L266.491 444.146L275.191 440.846C276.691 440.246 278.391 440.446 279.691 441.446L293.291 450.946L292.491 434.346C292.491 433.546 292.591 432.746 292.891 432.046C293.191 431.346 293.691 430.746 294.391 430.246L294.791 429.946L299.391 465.046Z" fill="#026767"/>
<path d="M184.191 476.146L169.891 482.146L156.891 473.746L158.191 489.146L146.191 499.046L158.591 501.946L161.291 502.546L166.891 517.046L174.991 503.746L190.391 502.846L180.291 491.146L180.991 488.446L184.191 476.146Z" fill="#026767"/>
<path d="M154.291 365.346L145.791 359.846L146.591 369.946L138.791 376.346L148.591 378.646L152.291 388.146L157.591 379.446L167.691 378.846L161.091 371.146L163.591 361.346L154.291 365.346Z" fill="#026767"/>
<path d="M101.591 421.946L86.9913 440.846L94.2913 463.546C94.8913 465.346 94.3913 467.246 93.0913 468.546C91.7913 469.846 89.7913 470.246 88.0913 469.646L71.0913 463.546C71.4913 460.546 71.8913 457.246 72.2913 453.646L82.0913 457.146L76.9913 441.346C76.4913 439.846 76.7913 438.146 77.7913 436.946L87.8913 423.846H76.5913C77.0913 420.646 77.6913 417.446 78.1913 414.146H97.6913C99.4913 414.146 101.191 415.246 101.991 416.846C102.891 418.446 102.691 420.446 101.591 421.946Z" fill="#026767"/>
<path fill-rule="evenodd" clip-rule="evenodd" d="M166.791 278.346L164.891 319.646C164.891 319.646 193.591 323.546 201.991 319.946C210.391 316.346 223.491 309.646 223.491 309.646L206.891 270.346L166.791 278.346Z" fill="#0A9B83" stroke="#2D0B8D" stroke-width="2.13" stroke-linecap="round" stroke-linejoin="round"/>
<path d="M263.291 537.646C263.291 537.646 345.691 643.146 341.391 663.246C337.091 683.346 256.291 805.346 256.291 805.346L187.291 803.146" stroke="#2D0B8D" stroke-width="2.13" stroke-linecap="round" stroke-linejoin="round"/>
<path fill-rule="evenodd" clip-rule="evenodd" d="M201.291 333.646L188.291 342.146L200.591 346.646L201.291 333.646Z" fill="#2D0B8D" stroke="#2D0B8D" stroke-width="2.13" stroke-linecap="round" stroke-linejoin="round"/>
<path fill-rule="evenodd" clip-rule="evenodd" d="M201.991 319.846L164.391 308.046L159.791 321.446C158.091 326.446 160.691 331.946 165.691 333.746L188.291 342.046L201.291 333.646L201.991 319.846Z" fill="#FAF6EB" stroke="#2D0B8D" stroke-width="2.13" stroke-linecap="round" stroke-linejoin="round"/>
<path fill-rule="evenodd" clip-rule="evenodd" d="M211.691 344.046L221.791 334.046L207.691 332.546L211.691 344.046Z" fill="#2D0B8D" stroke="#2D0B8D" stroke-width="2.13" stroke-linecap="round" stroke-linejoin="round"/>
<path fill-rule="evenodd" clip-rule="evenodd" d="M222.091 301.246L202.991 319.146L207.591 332.446L221.791 334.046L229.791 326.246C233.491 322.646 233.991 316.746 230.791 312.646L222.091 301.246Z" fill="#FAF6EB" stroke="#2D0B8D" stroke-width="2.13" stroke-linecap="round" stroke-linejoin="round"/>
<path d="M121.391 389.746C121.391 389.746 126.891 400.146 131.691 432.046C133.391 443.146 131.991 503.546 131.991 503.546" stroke="#2D0B8D" stroke-width="2.13" stroke-linecap="round" stroke-linejoin="round"/>
<path fill-rule="evenodd" clip-rule="evenodd" d="M165.891 289.246C145.091 282.746 133.091 261.846 139.091 242.546C142.091 232.946 139.691 220.946 148.391 216.746C157.191 212.546 177.191 216.146 187.591 219.346C208.391 225.846 220.391 246.746 214.391 266.046C211.091 276.546 207.291 286.546 197.491 290.546C189.191 293.846 175.391 292.246 165.891 289.246Z" fill="#0A9B83" stroke="#2D0B8D" stroke-width="2.13" stroke-linecap="round" stroke-linejoin="round"/>
<path fill-rule="evenodd" clip-rule="evenodd" d="M178.091 225.746C185.291 223.946 200.291 216.946 202.791 220.446C206.091 225.046 196.491 232.446 194.991 232.846" fill="#0A9B83"/>
<path d="M178.091 225.746C185.291 223.946 200.291 216.946 202.791 220.446C206.091 225.046 196.491 232.446 194.991 232.846" stroke="#2D0B8D" stroke-width="2.13" stroke-linecap="round" stroke-linejoin="round"/>
<path fill-rule="evenodd" clip-rule="evenodd" d="M194.091 264.746C188.391 267.846 181.791 260.246 181.791 260.246L196.591 249.146C196.691 249.046 204.791 258.946 194.091 264.746Z" fill="#2D0B8D" stroke="#2D0B8D" stroke-width="2.13" stroke-linecap="round" stroke-linejoin="round"/>
<path fill-rule="evenodd" clip-rule="evenodd" d="M163.291 252.546C160.691 250.846 160.591 246.446 163.091 242.746C165.491 238.946 169.591 237.246 172.191 238.946C174.791 240.646 174.891 245.046 172.391 248.746C169.891 252.546 165.891 254.246 163.291 252.546Z" fill="#FAFCFF" stroke="#2D0B8D" stroke-width="2.13" stroke-linecap="round" stroke-linejoin="round"/>
<path fill-rule="evenodd" clip-rule="evenodd" d="M176.491 225.446C174.091 223.946 173.691 220.346 175.691 217.346C177.691 214.446 181.191 213.246 183.691 214.846C186.091 216.346 186.491 219.946 184.491 222.946C182.491 225.846 178.891 226.946 176.491 225.446Z" fill="#FAFCFF" stroke="#2D0B8D" stroke-width="2.13" stroke-linecap="round" stroke-linejoin="round"/>
<path fill-rule="evenodd" clip-rule="evenodd" d="M167.491 296.546L166.091 281.546C166.091 281.546 183.091 268.846 190.291 273.746C197.491 278.746 196.091 300.546 196.091 300.546L182.091 306.046" fill="#0A9B83"/>
<path fill-rule="evenodd" clip-rule="evenodd" d="M148.691 210.246C151.991 208.446 144.091 206.146 148.091 206.646C160.891 208.046 161.191 218.846 157.191 227.446C153.391 235.646 147.291 242.746 147.291 242.746C147.291 242.746 164.391 267.346 153.891 278.046C146.991 285.046 134.691 283.746 130.691 275.446C127.391 268.646 127.191 261.146 128.291 253.846C129.391 246.346 133.591 239.246 134.391 231.846" fill="#2D0B8D"/>
<path d="M148.691 210.246C151.991 208.446 144.091 206.146 148.091 206.646C160.891 208.046 161.191 218.846 157.191 227.446C153.391 235.646 147.291 242.746 147.291 242.746C147.291 242.746 164.391 267.346 153.891 278.046C146.991 285.046 134.691 283.746 130.691 275.446C127.391 268.646 127.191 261.146 128.291 253.846C129.391 246.346 133.591 239.246 134.391 231.846" stroke="#2D0B8D" stroke-width="2.13" stroke-linecap="round" stroke-linejoin="round"/>
<path fill-rule="evenodd" clip-rule="evenodd" d="M136.391 226.846C106.091 220.946 101.591 244.446 115.191 252.546C98.6912 256.546 97.1912 288.146 125.591 287.746C121.691 291.246 139.491 308.246 146.191 283.246" fill="#2D0B8D"/>
<path d="M136.391 226.846C106.091 220.946 101.591 244.446 115.191 252.546C98.6912 256.546 97.1912 288.146 125.591 287.746C121.691 291.246 139.491 308.246 146.191 283.246" stroke="#2D0B8D" stroke-width="2.13" stroke-linecap="round" stroke-linejoin="round"/>
<path fill-rule="evenodd" clip-rule="evenodd" d="M155.591 275.946C156.291 274.946 149.491 277.446 153.391 285.946C156.091 291.946 170.791 293.746 170.491 282.846" fill="#0A9B83"/>
<path d="M155.591 275.946C156.291 274.946 149.491 277.446 153.391 285.946C156.091 291.946 170.791 293.746 170.491 282.846" stroke="#2D0B8D" stroke-width="2.13" stroke-linecap="round" stroke-linejoin="round"/>
<path d="M159.391 283.346L160.291 283.446H161.791L163.491 282.846" stroke="#2D0B8D" stroke-width="2.13" stroke-linecap="round" stroke-linejoin="round"/>
<path fill-rule="evenodd" clip-rule="evenodd" d="M171.391 239.946C169.591 238.946 167.291 239.646 166.391 241.546C165.491 243.346 166.091 245.646 167.991 246.546C169.791 247.546 172.091 246.846 172.991 244.946C173.891 243.146 173.191 240.846 171.391 239.946Z" fill="#2D0B8D" stroke="#2D0B8D" stroke-width="2.13" stroke-linecap="round" stroke-linejoin="round"/>
<path fill-rule="evenodd" clip-rule="evenodd" d="M182.991 215.646C181.291 214.746 179.291 215.146 178.591 216.646C177.791 218.046 178.591 219.946 180.291 220.846C181.991 221.746 183.991 221.346 184.691 219.846C185.491 218.446 184.691 216.546 182.991 215.646Z" fill="#2D0B8D" stroke="#2D0B8D" stroke-width="2.13" stroke-linecap="round" stroke-linejoin="round"/>
<path d="M159.791 216.246C160.491 212.246 156.591 208.546 154.191 205.846" stroke="#FAF6EB" stroke-width="2.13" stroke-linecap="round" stroke-linejoin="round"/>
<path d="M127.791 271.646C125.191 266.346 121.391 247.046 127.991 243.846C133.991 240.846 136.591 255.846 133.891 254.146C123.591 247.546 131.591 224.846 140.591 220.046" stroke="#FAF6EB" stroke-width="2.13" stroke-linecap="round" stroke-linejoin="round"/>
<path fill-rule="evenodd" clip-rule="evenodd" d="M188.891 291.546L210.991 279.246L215.391 294.746C215.391 294.746 207.591 295.346 200.391 294.046C193.291 292.746 188.891 291.546 188.891 291.546Z" fill="#2D0B8D" stroke="#2D0B8D" stroke-width="2.13" stroke-linecap="round" stroke-linejoin="round"/>
<path fill-rule="evenodd" clip-rule="evenodd" d="M159.491 279.946C159.491 277.046 161.891 274.746 164.891 274.746C167.891 274.746 170.291 277.046 170.291 279.946C170.291 282.846 167.891 285.146 164.891 285.146C161.891 285.146 159.491 282.746 159.491 279.946Z" fill="#2D0B8D" stroke="#2D0B8D" stroke-width="2.13" stroke-linecap="round" stroke-linejoin="round"/>
<path d="M168.291 279.346C175.991 287.046 187.091 306.046 194.591 326.146C201.191 343.946 174.491 384.846 173.191 400.746C171.691 417.846 199.191 470.346 183.391 500.746C169.991 526.546 143.591 523.946 129.791 553.046C115.991 582.146 102.591 641.946 37.8914 650.846" stroke="#2D0B8D" stroke-width="2.13" stroke-linecap="round" stroke-linejoin="round"/>
<path d="M439.691 264.646C448.791 287.146 360.991 295.846 320.791 344.946C280.591 394.046 200.391 345.946 187.991 365.046" stroke="#2D0B8D" stroke-width="2.13" stroke-linecap="round" stroke-linejoin="round"/>
<path d="M273.791 780.346C273.791 780.346 307.691 781.746 314.891 780.846" stroke="#2D0B8D" stroke-width="2.13" stroke-linecap="round" stroke-linejoin="round"/>
<path d="M54.7913 567.646L109.291 575.146" stroke="#2D0B8D" stroke-width="2.13" stroke-linecap="round" stroke-linejoin="round"/>
<path d="M256.491 157.346L314.491 155.346" stroke="#2D0B8D" stroke-width="2.13" stroke-linecap="round" stroke-linejoin="round"/>
<path fill-rule="evenodd" clip-rule="evenodd" d="M474.191 265.546C471.691 270.846 464.391 269.046 459.291 270.846C459.291 270.846 463.291 279.646 471.991 275.046C477.691 271.946 474.191 265.546 474.191 265.546Z" fill="#2D0B8D" stroke="#2D0B8D" stroke-width="2.13" stroke-linecap="round" stroke-linejoin="round"/>
<path d="M453.191 503.446C453.191 503.446 472.691 508.346 478.991 515.046C486.191 522.846 510.391 537.946 518.991 543.046" stroke="#2D0B8D" stroke-width="2.13" stroke-linecap="round" stroke-linejoin="round"/>
<path d="M457.991 252.846C457.991 245.246 464.591 239.146 472.791 239.146C480.991 239.146 487.591 245.246 487.591 252.846C487.591 260.446 480.991 266.546 472.791 266.546C464.591 266.546 457.991 260.446 457.991 252.846Z" stroke="#FAF6EB" stroke-width="2.13" stroke-linecap="round" stroke-linejoin="round"/>
<path d="M428.591 243.946C428.591 236.346 435.191 230.246 443.391 230.246C451.591 230.246 458.191 236.346 458.191 243.946C458.191 251.546 451.591 257.646 443.391 257.646C435.191 257.646 428.591 251.446 428.591 243.946Z" stroke="#FAF6EB" stroke-width="2.13" stroke-linecap="round" stroke-linejoin="round"/>
<path fill-rule="evenodd" clip-rule="evenodd" d="M455.291 253.746C448.591 252.546 442.691 247.846 440.591 251.246C437.891 255.646 446.691 262.846 448.091 263.246" fill="#0A9B83"/>
<path d="M455.291 253.746C448.591 252.546 442.691 247.846 440.591 251.246C437.891 255.646 446.691 262.846 448.091 263.246" stroke="#2D0B8D" stroke-width="2.13" stroke-linecap="round" stroke-linejoin="round"/>
<path d="M465.591 210.146C471.591 210.146 471.491 228.446 472.591 235.146" stroke="#FAF6EB" stroke-width="2.13" stroke-linecap="round" stroke-linejoin="round"/>
<path d="M489.591 202.146C511.591 223.146 509.591 252.646 512.391 267.846" stroke="#FAF6EB" stroke-width="2.13" stroke-linecap="round" stroke-linejoin="round"/>
<path d="M520.291 243.846C522.391 255.446 525.091 266.946 527.591 278.546" stroke="#FAF6EB" stroke-width="2.13" stroke-linecap="round" stroke-linejoin="round"/>
<path d="M457.091 356.146C454.391 373.946 444.491 393.346 435.191 403.346C433.491 405.146 431.191 407.346 428.691 409.146" stroke="#2D0B8D" stroke-width="2.13" stroke-linecap="round" stroke-linejoin="round"/>
<path d="M424.691 377.146C435.991 361.846 468.491 328.846 489.991 345.146C509.691 360.046 472.991 414.646 461.291 430.146" stroke="#2D0B8D" stroke-width="2.13" stroke-linecap="round" stroke-linejoin="round"/>
<path d="M446.491 429.446C450.091 421.246 456.291 412.246 457.791 410.146C470.291 392.446 505.891 347.046 532.291 355.446C532.791 355.546 533.191 355.746 533.591 355.946" stroke="#2D0B8D" stroke-width="2.13" stroke-linecap="round" stroke-linejoin="round"/>
<path d="M542.391 356.146C542.591 359.546 533.591 398.446 517.591 419.946" stroke="#2D0B8D" stroke-width="2.13" stroke-linecap="round" stroke-linejoin="round"/>
<path d="M502.691 418.046C503.791 415.246 504.991 412.446 506.291 409.746C513.491 394.246 524.191 377.146 537.991 364.946" stroke="#2D0B8D" stroke-width="2.13" stroke-linecap="round" stroke-linejoin="round"/>
<path fill-rule="evenodd" clip-rule="evenodd" d="M23.6914 644.946H53.1914C56.6914 644.946 59.4914 647.746 59.4914 651.246C59.4914 654.746 56.6914 657.546 53.1914 657.546H23.6914C20.1914 657.546 17.3914 654.746 17.3914 651.246C17.3914 647.746 20.2914 644.946 23.6914 644.946Z" fill="#2D0B8D" stroke="#2D0B8D" stroke-width="2.13" stroke-linecap="round" stroke-linejoin="round"/>
<path d="M578.591 480.246C606.891 487.746 695.691 528.146 715.591 521.846C735.491 515.446 757.391 485.446 776.791 474.046" stroke="#2D0B8D" stroke-width="2.13" stroke-linecap="round" stroke-linejoin="round"/>
<path d="M428.991 507.646C435.691 536.046 383.791 566.346 377.391 598.446C370.591 632.546 403.091 593.446 415.591 593.446C427.891 593.446 409.791 627.146 407.591 634.646C401.091 656.846 402.691 665.246 413.891 685.646" stroke="#2D0B8D" stroke-width="2.13" stroke-linecap="round" stroke-linejoin="round"/>
<path d="M188.791 366.446C184.891 367.746 181.291 364.046 184.991 361.546C190.191 358.046 189.991 366.046 188.791 366.446Z" stroke="#2D0B8D" stroke-width="2.13" stroke-linecap="round" stroke-linejoin="round"/>
<path fill-rule="evenodd" clip-rule="evenodd" d="M154.791 731.046C150.091 732.946 150.691 740.146 148.291 744.546C143.991 752.646 135.691 759.846 127.991 764.646C118.691 770.346 106.191 784.346 102.791 794.746C98.3912 808.346 105.991 823.246 122.291 819.446C137.991 815.746 137.191 795.446 142.691 784.046C148.091 772.846 181.391 745.346 167.891 732.346C163.791 728.346 159.091 729.346 154.791 731.046Z" fill="#180746"/>
<path fill-rule="evenodd" clip-rule="evenodd" d="M356.891 383.246C344.291 390.446 316.691 375.746 332.291 361.046C340.191 353.546 344.391 363.346 351.691 361.046C360.091 358.446 359.891 346.146 368.691 343.446C374.391 341.646 375.691 350.046 375.191 353.446C373.391 364.146 366.491 377.746 356.891 383.246Z" fill="#FAF6EB"/>
<path d="M463.591 470.946L574.891 438.846" stroke="#2D0B8D" stroke-width="2.13" stroke-linecap="round" stroke-linejoin="round"/>
<path fill-rule="evenodd" clip-rule="evenodd" d="M441.491 819.546L448.791 860.546L508.591 855.046L494.391 808.846L441.491 819.546Z" fill="#180746" stroke="#2D0B8D" stroke-width="2.13" stroke-linecap="round" stroke-linejoin="round"/>
<path fill-rule="evenodd" clip-rule="evenodd" d="M484.291 810.846C489.491 821.846 493.491 842.346 496.891 854.446Z" fill="#FAF6EB"/>
<path d="M484.291 810.846C489.491 821.846 493.491 842.346 496.891 854.446" stroke="#2D0B8D" stroke-width="2.13" stroke-linecap="round" stroke-linejoin="round"/>
<path fill-rule="evenodd" clip-rule="evenodd" d="M473.791 813.646C477.891 828.146 484.491 844.246 486.191 859.146Z" fill="#FAF6EB"/>
<path d="M473.791 813.646C477.891 828.146 484.491 844.246 486.191 859.146" stroke="#2D0B8D" stroke-width="2.13" stroke-linecap="round" stroke-linejoin="round"/>
<path fill-rule="evenodd" clip-rule="evenodd" d="M463.191 815.446C467.491 830.646 471.691 847.046 475.091 862.446Z" fill="#FAF6EB"/>
<path d="M463.191 815.446C467.491 830.646 471.691 847.046 475.091 862.446" stroke="#2D0B8D" stroke-width="2.13" stroke-linecap="round" stroke-linejoin="round"/>
<path fill-rule="evenodd" clip-rule="evenodd" d="M452.391 817.346C456.291 831.046 458.891 846.946 461.991 861.046Z" fill="#FAF6EB"/>
<path d="M452.391 817.346C456.291 831.046 458.891 846.946 461.991 861.046" stroke="#2D0B8D" stroke-width="2.13" stroke-linecap="round" stroke-linejoin="round"/>
<path fill-rule="evenodd" clip-rule="evenodd" d="M429.991 848.246L440.691 829.846C440.691 829.846 455.491 829.746 454.991 833.546C454.491 837.346 448.691 853.346 448.691 853.346L429.991 848.246Z" fill="#FAF6EB" stroke="#2D0B8D" stroke-width="2.13" stroke-linecap="round" stroke-linejoin="round"/>
<path fill-rule="evenodd" clip-rule="evenodd" d="M434.491 841.646L463.291 850.546C463.291 850.546 488.191 856.046 493.391 854.646C498.691 853.146 497.391 849.046 500.291 846.746C503.191 844.446 508.691 844.946 508.691 844.946C508.691 844.946 509.891 849.946 510.791 861.246C511.691 872.546 507.491 885.846 507.491 885.846L418.791 889.246L373.591 889.446C373.591 889.446 365.191 872.546 377.691 867.146C390.391 861.646 402.191 859.846 419.991 852.546C428.891 848.846 434.491 841.646 434.491 841.646Z" fill="#026767" stroke="#2D0B8D" stroke-width="2.13" stroke-linecap="round" stroke-linejoin="round"/>
<path fill-rule="evenodd" clip-rule="evenodd" d="M507.991 882.046C505.691 881.446 466.391 880.846 466.391 880.846C466.391 880.846 459.291 884.246 437.491 886.746C415.691 889.246 373.591 888.746 373.591 888.746C373.591 888.746 382.491 895.746 401.991 894.246C424.591 892.546 506.891 891.946 506.891 891.946C506.891 891.946 511.391 890.046 511.691 887.846C511.791 885.646 510.491 882.746 507.991 882.046Z" fill="#FAF6EB" stroke="#2D0B8D" stroke-width="2.13" stroke-linecap="round" stroke-linejoin="round"/>
<path d="M432.091 852.846C432.091 851.646 433.091 850.646 434.391 850.646C435.691 850.646 436.691 851.646 436.691 852.846C436.691 854.046 435.691 855.046 434.391 855.046C433.191 855.046 432.091 854.046 432.091 852.846Z" fill="#FAF6EB" stroke="#2D0B8D" stroke-width="2.13" stroke-linecap="round" stroke-linejoin="round"/>
<path d="M418.191 859.146C418.191 857.946 419.191 856.946 420.491 856.946C421.791 856.946 422.791 857.946 422.791 859.146C422.791 860.346 421.791 861.346 420.491 861.346C419.291 861.346 418.191 860.346 418.191 859.146Z" fill="#FAF6EB" stroke="#2D0B8D" stroke-width="2.13" stroke-linecap="round" stroke-linejoin="round"/>
<path d="M404.091 864.646C404.091 863.446 405.091 862.446 406.391 862.446C407.691 862.446 408.691 863.446 408.691 864.646C408.691 865.846 407.691 866.846 406.391 866.846C405.191 866.846 404.091 865.846 404.091 864.646Z" fill="#FAF6EB" stroke="#2D0B8D" stroke-width="2.13" stroke-linecap="round" stroke-linejoin="round"/>
<path fill-rule="evenodd" clip-rule="evenodd" d="M429.191 844.846L433.591 851.546Z" fill="#FAF6EB"/>
<path d="M429.191 844.846L433.591 851.546" stroke="#2D0B8D" stroke-width="2.13" stroke-linecap="round" stroke-linejoin="round"/>
<path fill-rule="evenodd" clip-rule="evenodd" d="M415.791 851.146L420.191 857.846Z" fill="#FAF6EB"/>
<path d="M415.791 851.146L420.191 857.846" stroke="#2D0B8D" stroke-width="2.13" stroke-linecap="round" stroke-linejoin="round"/>
<path fill-rule="evenodd" clip-rule="evenodd" d="M401.691 856.446L406.091 863.146Z" fill="#FAF6EB"/>
<path d="M401.691 856.446L406.091 863.146" stroke="#2D0B8D" stroke-width="2.13" stroke-linecap="round" stroke-linejoin="round"/>
<path fill-rule="evenodd" clip-rule="evenodd" d="M462.891 850.246C462.891 850.246 458.091 858.146 463.491 863.946C468.891 869.646 481.691 880.346 481.691 880.346C481.691 880.346 481.491 872.246 487.491 869.046C493.491 865.946 509.791 861.946 509.791 861.946L510.691 853.646L496.691 853.446C496.691 853.446 487.091 854.546 479.091 853.446C470.991 852.346 462.891 850.246 462.891 850.246Z" fill="#FAF6EB" stroke="#2D0B8D" stroke-width="2.13" stroke-linecap="round" stroke-linejoin="round"/>
<path fill-rule="evenodd" clip-rule="evenodd" d="M371.691 872.046C371.691 872.046 375.691 876.346 384.991 876.046C394.291 875.746 399.991 875.546 399.991 875.546L400.491 870.346C400.491 870.346 394.091 871.346 393.591 868.246C393.091 865.146 391.591 861.646 391.591 861.646C391.591 861.646 386.291 863.046 377.791 866.646C372.791 868.746 371.691 872.046 371.691 872.046Z" fill="#FAF6EB" stroke="#2D0B8D" stroke-width="2.13" stroke-linecap="round" stroke-linejoin="round"/>
<path d="M399.891 870.346L429.991 868.146L444.791 885.246" stroke="#2D0B8D" stroke-width="2.13" stroke-linecap="round" stroke-linejoin="round"/>
<path fill-rule="evenodd" clip-rule="evenodd" d="M842.091 448.646L893.691 417.446L835.691 376.846L806.391 415.146L842.091 448.646Z" fill="#180746" stroke="#2D0B8D" stroke-width="2.13" stroke-linecap="round" stroke-linejoin="round"/>
<path fill-rule="evenodd" clip-rule="evenodd" d="M813.891 422.246C819.791 411.646 834.291 396.546 842.091 386.646Z" fill="#FAF6EB"/>
<path d="M813.891 422.246C819.791 411.646 834.291 396.546 842.091 386.646" stroke="#2D0B8D" stroke-width="2.13" stroke-linecap="round" stroke-linejoin="round"/>
<path fill-rule="evenodd" clip-rule="evenodd" d="M822.292 429.246C831.692 417.446 852.692 398.646 863.792 388.646Z" fill="#FAF6EB"/>
<path d="M822.292 429.246C831.692 417.446 852.692 398.646 863.792 388.646" stroke="#2D0B8D" stroke-width="2.13" stroke-linecap="round" stroke-linejoin="round"/>
<path fill-rule="evenodd" clip-rule="evenodd" d="M829.891 436.746C839.691 424.446 860.291 409.646 870.891 397.946Z" fill="#FAF6EB"/>
<path d="M829.891 436.746C839.691 424.446 860.291 409.646 870.891 397.946" stroke="#2D0B8D" stroke-width="2.13" stroke-linecap="round" stroke-linejoin="round"/>
<path fill-rule="evenodd" clip-rule="evenodd" d="M837.691 444.446C846.591 433.246 871.691 419.346 881.391 408.646Z" fill="#FAF6EB"/>
<path d="M837.691 444.446C846.591 433.246 871.691 419.346 881.391 408.646" stroke="#2D0B8D" stroke-width="2.13" stroke-linecap="round" stroke-linejoin="round"/>
<path fill-rule="evenodd" clip-rule="evenodd" d="M893.791 417.446L881.491 434.746C881.491 434.746 866.691 433.546 867.591 429.846C868.391 426.046 875.591 410.646 875.591 410.646L893.791 417.446Z" fill="#FAF6EB" stroke="#2D0B8D" stroke-width="2.13" stroke-linecap="round" stroke-linejoin="round"/>
<path fill-rule="evenodd" clip-rule="evenodd" d="M888.791 423.546L860.891 412.146C860.891 412.146 836.591 404.446 831.291 405.446C825.891 406.446 826.791 410.646 823.691 412.646C820.591 414.646 808.191 408.946 808.191 408.946C808.191 408.946 814.391 408.646 814.491 397.346C814.591 386.046 819.991 373.146 819.991 373.146L908.691 377.646L953.691 381.446C953.691 381.446 960.491 398.946 947.591 403.346C934.491 407.646 922.491 408.446 904.191 414.146C894.991 416.946 888.791 423.546 888.791 423.546Z" fill="#026767" stroke="#2D0B8D" stroke-width="2.13" stroke-linecap="round" stroke-linejoin="round"/>
<path fill-rule="evenodd" clip-rule="evenodd" d="M819.191 376.846C821.391 377.646 860.491 381.746 860.491 381.746C860.491 381.746 867.891 378.946 889.791 378.446C911.791 377.946 953.591 382.146 953.591 382.146C953.591 382.146 945.391 374.346 925.791 374.146C903.091 373.846 821.191 367.046 821.191 367.046C821.191 367.046 816.491 368.546 816.091 370.646C815.691 372.846 816.691 375.946 819.191 376.846Z" fill="#FAF6EB" stroke="#2D0B8D" stroke-width="2.13" stroke-linecap="round" stroke-linejoin="round"/>
<path d="M892.091 412.646C891.991 413.846 890.891 414.746 889.591 414.646C888.291 414.546 887.391 413.446 887.491 412.246C887.591 411.046 888.691 410.146 889.991 410.246C891.291 410.346 892.191 411.446 892.091 412.646Z" fill="#FAF6EB" stroke="#2D0B8D" stroke-width="2.13" stroke-linecap="round" stroke-linejoin="round"/>
<path d="M906.491 407.646C906.391 408.846 905.291 409.746 903.991 409.646C902.691 409.546 901.791 408.446 901.891 407.246C901.991 406.046 903.091 405.146 904.391 405.246C905.691 405.346 906.591 406.346 906.491 407.646Z" fill="#FAF6EB" stroke="#2D0B8D" stroke-width="2.13" stroke-linecap="round" stroke-linejoin="round"/>
<path d="M921.091 403.346C920.991 404.546 919.891 405.446 918.591 405.346C917.291 405.246 916.391 404.146 916.491 402.946C916.591 401.746 917.691 400.846 918.991 400.946C920.191 401.046 921.191 402.146 921.091 403.346Z" fill="#FAF6EB" stroke="#2D0B8D" stroke-width="2.13" stroke-linecap="round" stroke-linejoin="round"/>
<path fill-rule="evenodd" clip-rule="evenodd" d="M894.291 420.946L890.491 413.846Z" fill="#FAF6EB"/>
<path d="M894.291 420.946L890.491 413.846" stroke="#2D0B8D" stroke-width="2.13" stroke-linecap="round" stroke-linejoin="round"/>
<path fill-rule="evenodd" clip-rule="evenodd" d="M908.191 415.746L904.391 408.646Z" fill="#FAF6EB"/>
<path d="M908.191 415.746L904.391 408.646" stroke="#2D0B8D" stroke-width="2.13" stroke-linecap="round" stroke-linejoin="round"/>
<path fill-rule="evenodd" clip-rule="evenodd" d="M922.791 411.746L919.091 404.646Z" fill="#FAF6EB"/>
<path d="M922.791 411.746L919.091 404.646" stroke="#2D0B8D" stroke-width="2.13" stroke-linecap="round" stroke-linejoin="round"/>
<path fill-rule="evenodd" clip-rule="evenodd" d="M861.191 412.446C861.191 412.446 866.691 404.946 861.791 398.746C856.891 392.546 845.091 380.846 845.091 380.846C845.091 380.846 844.591 388.946 838.291 391.546C831.991 394.146 815.491 396.646 815.491 396.646L813.891 404.846L827.791 406.246C827.791 406.246 837.491 405.946 845.291 407.846C853.291 409.746 861.191 412.446 861.191 412.446Z" fill="#FAF6EB" stroke="#2D0B8D" stroke-width="2.13" stroke-linecap="round" stroke-linejoin="round"/>
<path fill-rule="evenodd" clip-rule="evenodd" d="M954.091 398.846C954.091 398.846 950.491 394.146 941.191 393.646C931.891 393.146 926.191 392.846 926.191 392.846L925.191 397.946C925.191 397.946 931.591 397.546 931.891 400.646C932.091 403.746 933.291 407.346 933.291 407.346C933.291 407.346 938.691 406.446 947.491 403.646C952.691 402.046 954.091 398.846 954.091 398.846Z" fill="#FAF6EB" stroke="#2D0B8D" stroke-width="2.13" stroke-linecap="round" stroke-linejoin="round"/>
<path d="M925.691 398.046L895.491 397.546L882.391 379.146" stroke="#2D0B8D" stroke-width="2.13" stroke-linecap="round" stroke-linejoin="round"/>
<path fill-rule="evenodd" clip-rule="evenodd" d="M269.191 898.946L224.691 899.946L139.491 898.746L147.791 855.046L185.691 854.046C185.691 854.046 184.391 844.046 194.291 844.446C201.891 844.746 224.291 867.946 244.991 874.346C273.391 883.246 269.191 898.946 269.191 898.946Z" fill="#180746"/>
<path fill-rule="evenodd" clip-rule="evenodd" d="M268.691 893.246L172.391 892.746C169.591 892.746 167.391 894.746 167.291 897.246V898.846C167.291 901.346 169.491 903.346 172.291 903.346L268.591 903.846C271.391 903.846 273.591 901.846 273.691 899.346V897.746C273.691 895.346 271.491 893.246 268.691 893.246Z" fill="#2D0B8D" stroke="#2D0B8D" stroke-width="2.13" stroke-linecap="round" stroke-linejoin="round"/>
<path fill-rule="evenodd" clip-rule="evenodd" d="M180.491 903.446L134.991 902.746L137.791 878.846C137.791 878.846 160.891 877.546 168.791 884.946C176.791 892.646 180.491 903.446 180.491 903.446Z" fill="#2D0B8D" stroke="#2D0B8D" stroke-width="2.13" stroke-linecap="round" stroke-linejoin="round"/>
<path fill-rule="evenodd" clip-rule="evenodd" d="M249.491 875.846L196.091 843.146C196.091 843.146 187.591 844.446 185.391 847.946C183.191 851.346 187.091 856.846 187.091 856.846C187.091 856.846 217.591 877.246 230.591 881.346C239.691 884.146 249.491 875.846 249.491 875.846Z" fill="#2D0B8D" stroke="#2D0B8D" stroke-width="2.13" stroke-linecap="round" stroke-linejoin="round"/>
<path d="M201.491 862.946L182.991 897.546" stroke="#2D0B8D" stroke-width="2.13" stroke-linecap="round" stroke-linejoin="round"/>
<path d="M147.791 855.046L143.291 886.746" stroke="#2D0B8D" stroke-width="2.13" stroke-linecap="round" stroke-linejoin="round"/>
<path d="M146.391 561.746L226.691 666.346L204.491 714.446" stroke="#2D0B8D" stroke-width="2.13" stroke-linecap="round" stroke-linejoin="round"/>
<path fill-rule="evenodd" clip-rule="evenodd" d="M841.091 469.746C827.191 490.846 768.591 575.146 713.191 588.146C700.691 591.046 685.591 591.046 669.391 589.246C679.091 579.346 694.791 573.446 708.791 568.246C734.091 558.846 739.891 563.346 749.891 554.346C763.391 542.246 756.391 530.946 769.391 509.046C773.291 502.446 789.291 477.646 817.791 471.446C823.191 470.246 832.191 469.146 841.091 469.746Z" fill="#2D0B8D" stroke="#2D0B8D" stroke-width="2.13" stroke-linecap="round" stroke-linejoin="round"/>
<path fill-rule="evenodd" clip-rule="evenodd" d="M518.991 543.046L459.291 627.846L502.691 752.746L481.391 755.946C459.891 746.046 443.691 725.946 441.491 705.846C440.291 694.646 444.691 694.746 443.891 680.446C442.491 652.146 425.191 646.846 428.191 629.246C430.991 612.746 446.891 613.446 453.991 590.646C458.191 577.046 453.791 572.846 457.791 561.846C461.391 552.146 470.591 540.146 495.791 530.646C502.491 532.846 511.091 536.546 518.991 543.046Z" fill="#2D0B8D" stroke="#2D0B8D" stroke-width="2.13" stroke-linecap="round" stroke-linejoin="round"/>
<path fill-rule="evenodd" clip-rule="evenodd" d="M621.391 461.546C609.991 467.446 600.591 468.646 593.491 468.346C575.891 467.546 568.091 457.146 549.991 460.346C536.091 462.746 533.391 470.146 523.191 469.746C511.591 469.346 501.891 459.246 494.391 447.746L557.191 430.346L621.391 461.546Z" fill="#2D0B8D" stroke="#2D0B8D" stroke-width="2.13" stroke-linecap="round" stroke-linejoin="round"/>
<path fill-rule="evenodd" clip-rule="evenodd" d="M574.891 409.246C574.891 409.246 542.991 415.246 528.391 418.046C517.691 420.046 505.591 428.946 479.991 435.846C479.191 432.746 478.891 429.446 480.491 426.746C483.291 421.846 489.491 423.446 500.191 418.746C511.491 413.746 510.291 409.546 518.991 407.046C530.391 403.846 535.291 410.446 541.791 406.746C549.791 402.146 545.391 390.546 551.891 378.746C553.391 376.046 555.291 373.646 557.491 371.346L574.891 409.246Z" fill="#2D0B8D" stroke="#2D0B8D" stroke-width="2.13" stroke-linecap="round" stroke-linejoin="round"/>
<path fill-rule="evenodd" clip-rule="evenodd" d="M290.591 51.1461C290.591 51.1461 293.291 18.7461 285.491 10.2461C278.991 3.24609 249.791 -3.95391 241.091 9.84609C232.391 23.6461 252.091 65.9461 252.091 65.9461L259.391 133.646L313.491 130.946C304.891 90.0461 290.591 51.1461 290.591 51.1461Z" fill="#0A9B83" stroke="#2D0B8D" stroke-width="2.13" stroke-linecap="round" stroke-linejoin="round"/>
<path d="M254.691 40.3461C262.391 26.9461 254.191 18.5461 254.191 18.5461C254.191 18.5461 270.991 19.6461 273.691 11.2461C277.291 -0.253862 252.191 2.54614 252.191 2.54614" fill="#0A9B83"/>
<path d="M254.691 40.3461C262.391 26.9461 254.191 18.5461 254.191 18.5461C254.191 18.5461 270.991 19.6461 273.691 11.2461C277.291 -0.253862 252.191 2.54614 252.191 2.54614" stroke="#2D0B8D" stroke-width="2.13" stroke-linecap="round" stroke-linejoin="round"/>
<path d="M269.791 31.1461C270.891 26.9461 269.091 21.2461 267.491 17.3461Z" fill="#0A9B83"/>
<path d="M269.791 31.1461C270.891 26.9461 269.091 21.2461 267.491 17.3461" stroke="#2D0B8D" stroke-width="2.13" stroke-linecap="round" stroke-linejoin="round"/>
<path d="M279.491 26.1461C280.491 20.6461 279.291 13.2461 274.891 9.34607Z" fill="#0A9B83"/>
<path d="M279.491 26.1461C280.491 20.6461 279.291 13.2461 274.891 9.34607" stroke="#2D0B8D" stroke-width="2.13" stroke-linecap="round" stroke-linejoin="round"/>
<path d="M548.291 89.9461L534.391 34.2461L535.191 33.8461L531.591 19.1461L475.891 47.3461L479.691 62.7461L480.491 62.3461L493.191 113.546C489.491 112.546 484.891 113.546 480.891 116.646C475.091 121.246 473.091 128.446 476.491 132.846C479.891 137.246 487.391 137.146 493.291 132.546C499.191 128.046 501.091 120.746 497.691 116.346C497.591 116.146 497.391 116.046 497.191 115.846L485.291 68.0461L533.191 43.6461L544.091 87.6461C540.391 86.6461 535.691 87.6461 531.691 90.7461C525.791 95.3461 523.891 102.546 527.291 106.946C530.691 111.346 538.191 111.246 544.091 106.646C549.991 102.046 551.891 94.8461 548.491 90.4461C548.591 90.1461 548.391 90.0461 548.291 89.9461ZM484.591 64.6461L483.591 60.6461L531.391 35.8461L532.491 40.1461L484.591 64.6461Z" fill="#2D0B8D" stroke="#2D0B8D" stroke-width="2.13" stroke-linecap="round" stroke-linejoin="round"/>
<path d="M389.391 148.446C388.991 148.346 388.491 148.446 388.291 148.846C383.191 155.946 378.091 159.846 372.891 160.446C371.991 160.546 371.191 160.546 370.291 160.546C372.791 159.146 374.491 156.546 374.691 153.546C374.991 148.846 371.291 144.746 366.591 144.546C361.891 144.246 357.791 147.946 357.591 152.646C357.291 157.346 360.991 161.446 365.691 161.646C365.891 161.646 366.091 161.646 366.291 161.646C368.591 162.446 370.891 162.746 373.191 162.446C378.191 161.846 383.191 158.446 387.991 152.546L386.991 171.046C381.991 177.946 376.891 181.746 371.791 182.446C370.891 182.546 370.091 182.546 369.191 182.546C371.691 181.146 373.391 178.546 373.591 175.546C373.791 170.846 370.191 166.746 365.491 166.546C360.791 166.346 356.691 169.946 356.491 174.646C356.191 179.346 359.891 183.446 364.591 183.646C364.791 183.646 364.991 183.646 365.191 183.646C366.891 184.246 368.491 184.546 370.191 184.546C370.791 184.546 371.391 184.546 372.091 184.446C377.091 183.846 382.091 180.446 386.891 174.546L385.191 206.946L387.091 207.046L390.191 149.546C389.991 149.046 389.791 148.646 389.391 148.446Z" fill="#2D0B8D" stroke="#2D0B8D" stroke-width="2.13" stroke-linecap="round" stroke-linejoin="round"/>
<path d="M590.591 273.446C583.191 293.146 574.791 312.546 565.491 331.446" stroke="#2D0B8D" stroke-width="2.13" stroke-linecap="round" stroke-linejoin="round"/>
<path d="M606.091 229.746C605.991 233.746 605.191 237.846 603.791 241.546C602.891 243.746 601.791 246.046 601.991 248.346C604.291 249.246 607.191 247.046 606.991 244.546C606.491 244.246 605.791 244.646 605.391 245.146C601.391 249.446 599.091 255.146 598.991 260.946" stroke="#2D0B8D" stroke-width="2.13" stroke-linecap="round" stroke-linejoin="round"/>
<path d="M589.491 244.546C583.991 257.746 578.591 270.846 573.091 284.046" stroke="#2D0B8D" stroke-width="2.13" stroke-linecap="round" stroke-linejoin="round"/>
<path d="M187.291 751.546L163.391 803.146" stroke="#2D0B8D" stroke-width="2.13" stroke-linecap="round" stroke-linejoin="round"/>
<path d="M630.091 565.446C633.891 566.746 637.791 567.646 641.691 568.146C647.991 568.946 654.591 568.846 660.591 571.046" stroke="#2D0B8D" stroke-width="2.13" stroke-linecap="round" stroke-linejoin="round"/>
<path d="M660.691 564.146C669.991 563.946 679.291 562.846 687.991 559.646C692.291 558.046 696.391 555.946 700.591 554.146C711.191 549.646 722.591 547.246 733.891 545.446" stroke="#2D0B8D" stroke-width="2.13" stroke-linecap="round" stroke-linejoin="round"/>
<path d="M728.591 537.746C712.691 545.246 695.191 549.346 677.591 549.746" stroke="#2D0B8D" stroke-width="2.13" stroke-linecap="round" stroke-linejoin="round"/>
<path d="M183.691 732.746C182.791 732.646 181.991 733.246 181.291 733.946C178.591 736.546 180.991 739.446 178.891 742.646" stroke="white" stroke-width="2.13" stroke-linecap="round" stroke-linejoin="round"/>
<path d="M214.291 575.046C219.791 585.946 206.591 591.146 233.991 605.846" stroke="#2D0B8D" stroke-width="2.13" stroke-linecap="round" stroke-linejoin="round"/>
</svg>
