<svg width="538" height="825" viewBox="0 0 538 825" fill="none" xmlns="http://www.w3.org/2000/svg">
<path fill-rule="evenodd" clip-rule="evenodd" d="M369.9 247.6C386.2 251 404.7 249.7 418.8 257.7C434 266.5 454.5 281.6 464 295.4C482.2 321.7 485 351.6 500 379.4C544.5 462.2 549.2 525.8 514.9 612.6C493.8 665.9 474.9 705.9 426.9 743C406.9 758.5 386.9 781.3 360.1 787.9C339.9 792.9 268.1 787.3 246.1 783.6C187.9 773.6 146.6 714.1 150 663.4C151.8 635.9 173.6 611.1 158.2 583.7C132.7 538.4 60.8 559.7 37.6 512.7C27.6 492.4 33.7 470 37.6 449C53 366.7 130.5 296.8 215.2 263.6C225.7 259.5 237 254.8 248.7 250.5C287.6 235.9 330.3 235.1 369.9 247.6Z" fill="#180746"/>
<path d="M105.5 349.1C141.6 388.6 184.9 434.3 208.3 530.6" stroke="#2D0B8D" stroke-width="2.13" stroke-linecap="round" stroke-linejoin="round"/>
<path fill-rule="evenodd" clip-rule="evenodd" d="M88.4 302.3C85.2 304.5 84.6001 312.4 85.7001 320.1C81.3001 316.4 76.5001 313.5 73.0001 313.3C63.8001 312.7 66.4001 321.4 72.5001 329.4C68.1001 328.8 64.0001 329 61.4001 330.2C52.0001 334.5 61.1001 342 71.9001 346C66.5001 348.1 61.8001 351 59.9001 354C54.4001 362.8 66.0001 364 77.3001 361.4C74.0001 366.1 71.5001 371.1 71.6001 374.7C71.8001 385 82.2001 379.7 90.2001 371.4C90.0001 377.1 90.7001 382.7 92.7001 385.6C98.5001 394.1 104.3 384 106.5 372.7C109.4 377.6 113.1 381.9 116.4 383.3C125.9 387.3 125.3 375.6 120.9 364.9C126.1 367.4 131.4 369 134.9 368.4C145.1 366.5 138.1 357.1 128.6 350.5C134.3 349.8 139.7 348.2 142.3 345.7C149.8 338.6 138.8 334.5 127.3 334.2C131.7 330.5 135.3 326.2 136.1 322.7C138.5 312.6 127 315.2 117.2 321.3C118.8 315.8 119.5 310.2 118.3 306.9C114.8 297.2 106.6 305.6 101.8 316C100.2 310.5 97.7001 305.5 94.8001 303.3C92.0001 301.4 89.9 301.2 88.4 302.3ZM96.6001 338.5C98.3001 338.7 99.6001 338.3 100.6 337.4C101.9 338.5 103.2 338.9 104.5 338.7C105 340.3 105.9 341.3 107 341.9C106.5 343.5 106.7 344.9 107.4 346C106.1 347.1 105.5 348.4 105.5 349.7C103.8 349.9 102.6 350.6 101.8 351.7C100.3 351 98.9001 350.9 97.7001 351.4C96.8001 350 95.7 349.2 94.4 348.9C94.5 347.2 94.0001 345.9 93.0001 345C93.9001 343.8 94.1001 342.6 94.0001 341.4C95.5001 340.6 96.3001 339.7 96.6001 338.5Z" fill="#0A9B83" stroke="#2D0B8D" stroke-width="2.13" stroke-linecap="round" stroke-linejoin="round"/>
<path fill-rule="evenodd" clip-rule="evenodd" d="M87.8 351.5C84.6 344.4 87.7 336 94.8 332.8C101.9 329.6 110.3 332.7 113.5 339.8C116.7 346.9 113.6 355.3 106.5 358.5C99.4 361.7 91 358.6 87.8 351.5Z" fill="#2D0B8D" stroke="#2D0B8D" stroke-width="2.13" stroke-linecap="round" stroke-linejoin="round"/>
<path fill-rule="evenodd" clip-rule="evenodd" d="M183.6 449.2C179.5 414.8 199.9 380.7 222.1 378.3C220.6 383 211.9 396.2 209.9 398.9C221.5 392.8 224 394.6 224 394.6C224 394.6 214.3 411.8 205.7 417.4C215.9 418.3 216.8 419.8 216.8 419.8C216.8 419.8 195.6 440.1 183.6 449.2Z" fill="#FAF6EB" stroke="#2D0B8D" stroke-width="2.13" stroke-linecap="round" stroke-linejoin="round"/>
<path fill-rule="evenodd" clip-rule="evenodd" d="M154.2 433.4C130.9 407.8 91.8 401 75.4 416.3C79.9 418.3 95.6 420.2 99 420.5C86.8 425.3 86.5 428.4 86.5 428.4C86.5 428.4 105.9 432.3 115.8 429.4C109.8 437.7 110.4 439.3 110.4 439.3C110.4 439.3 139.5 436.6 154.2 433.4Z" fill="#FAF6EB" stroke="#2D0B8D" stroke-width="2.13" stroke-linecap="round" stroke-linejoin="round"/>
<path d="M189 443.6C188.4 435.2 190.7 414.8 200.1 401.7Z" fill="#FAF6EB"/>
<path d="M189 443.6C188.4 435.2 190.7 414.8 200.1 401.7" stroke="#2D0B8D" stroke-width="2.13" stroke-linecap="round" stroke-linejoin="round"/>
<path d="M113.1 416.6C112.6 416.5 120.2 417.8 128.9 422.2C137.6 426.6 147.9 434.3 147.9 434.3" fill="#FAF6EB"/>
<path d="M113.1 416.6C112.6 416.5 120.2 417.8 128.9 422.2C137.6 426.6 147.9 434.3 147.9 434.3" stroke="#2D0B8D" stroke-width="2.13" stroke-linecap="round" stroke-linejoin="round"/>
<path fill-rule="evenodd" clip-rule="evenodd" d="M175.3 755.1C138.9 676 223.3 607.8 240.6 480.1C309.7 465.3 401.8 470.3 401.8 470.3C401.8 470.3 463.6 630.4 479.8 674.7C512.5 764.1 386.1 796.4 386.1 796.4C386.1 796.4 211.7 834.2 175.3 755.1Z" fill="#0A9B83" stroke="#2D0B8D" stroke-width="2.13" stroke-linecap="round" stroke-linejoin="round"/>
<path fill-rule="evenodd" clip-rule="evenodd" d="M285 302.7L269.3 404.2L207.7 409.8C207.7 409.8 207.2 407.2 206.7 402.7C205.8 393.9 205.4 377.7 209.8 358.2C216.5 328.5 234.4 291 234.4 291L249.9 294.6L285 302.7Z" fill="#0A9B83" stroke="#2D0B8D" stroke-width="2.13" stroke-linecap="round" stroke-linejoin="round"/>
<path fill-rule="evenodd" clip-rule="evenodd" d="M249.9 294.5C248.7 302.9 245.7 308 242.9 311.1C237.7 317.2 232.2 318 230.5 324.4C229.7 327.4 230.7 328.1 231.1 338C231.4 344.4 231.5 347.6 231.1 349.6C228.9 360.3 218 361.2 216.9 368.9C215.6 377.9 229.7 382.9 229 389.9C228.6 393.7 223.9 398.3 206.7 402.6C205.8 393.8 205.4 377.6 209.8 358.1C216.5 328.4 234.4 290.9 234.4 290.9L249.9 294.5Z" fill="#2D0B8D" stroke="#2D0B8D" stroke-width="2.13" stroke-linecap="round" stroke-linejoin="round"/>
<path fill-rule="evenodd" clip-rule="evenodd" d="M342.4 212.8C332.5 208.4 335.1 190.5 348.5 180.6C361.9 170.7 383.5 179.7 389 179.4C420.1 177.9 430.8 206.8 420.6 238.6C417.6 247.8 392.7 271.1 382.5 265C372.2 258.8 392.3 229.2 383.5 222.4" fill="#2D0B8D"/>
<path d="M342.4 212.8C332.5 208.4 335.1 190.5 348.5 180.6C361.9 170.7 383.5 179.7 389 179.4C420.1 177.9 430.8 206.8 420.6 238.6C417.6 247.8 392.7 271.1 382.5 265C372.2 258.8 392.3 229.2 383.5 222.4" stroke="#2D0B8D" stroke-width="2.13" stroke-linecap="round" stroke-linejoin="round"/>
<path fill-rule="evenodd" clip-rule="evenodd" d="M393.1 249.6L396.9 281.6L408.1 295.9C408.1 295.9 397.4 310.6 378.6 308.4C359.8 306.3 354.1 294.5 354.1 294.5L352.7 252.9L393.1 249.6Z" fill="#FAF6EB" stroke="#2D0B8D" stroke-width="2.13" stroke-linecap="round" stroke-linejoin="round"/>
<path fill-rule="evenodd" clip-rule="evenodd" d="M407.6 238.7C410.4 217.9 397 198.9 377.7 196.4C368.1 195.1 358.5 188.2 351.3 194.1C344 200.1 339.1 219 337.7 229.4C334.9 250.2 347.7 267.6 367 270.2C377.5 271.6 388.4 273.9 395.9 266.9C402.2 261 406.4 248.3 407.6 238.7Z" fill="#FAF6EB" stroke="#2D0B8D" stroke-width="2.13" stroke-linecap="round" stroke-linejoin="round"/>
<path fill-rule="evenodd" clip-rule="evenodd" d="M347.2 223.7C342.7 229.2 330.5 239.5 332.5 243.1C335.2 247.8 345.5 242.5 346.5 241.4" fill="#FAF6EB"/>
<path d="M347.2 223.7C342.7 229.2 330.5 239.5 332.5 243.1C335.2 247.8 345.5 242.5 346.5 241.4" stroke="#2D0B8D" stroke-width="2.13" stroke-linecap="round" stroke-linejoin="round"/>
<path fill-rule="evenodd" clip-rule="evenodd" d="M376.6 221.6C376.2 218.7 372.4 216.8 368.1 217.4C363.8 218 360.7 220.9 361.1 223.8C361.5 226.7 365.3 228.6 369.6 228C373.9 227.4 377 224.5 376.6 221.6Z" fill="#FAFCFF" stroke="#2D0B8D" stroke-width="2.13" stroke-linecap="round" stroke-linejoin="round"/>
<path fill-rule="evenodd" clip-rule="evenodd" d="M347.6 222.1C347.3 219.4 344.2 217.6 340.9 218.1C337.5 218.6 335.1 221.3 335.5 224.1C335.8 226.8 338.9 228.6 342.2 228.1C345.5 227.5 347.9 224.9 347.6 222.1Z" fill="#FAFCFF" stroke="#2D0B8D" stroke-width="2.13" stroke-linecap="round" stroke-linejoin="round"/>
<path fill-rule="evenodd" clip-rule="evenodd" d="M392 281.2L393 256.4C393 256.4 373.3 250.7 368.5 257.6C363.7 264.5 372.4 283.7 372.4 283.7L386.9 283.9" fill="#FAF6EB"/>
<path fill-rule="evenodd" clip-rule="evenodd" d="M345.6 191.6C342.6 193.8 343.9 185.9 342.7 189.6C338.7 201.4 348.1 206.1 357.2 206C365.9 206 374.6 203.6 374.6 203.6C374.6 203.6 389.2 228.6 402.7 223.7C411.6 220.5 415.5 209.2 409.8 202.4C405.1 196.8 398.7 193.6 391.8 191.6C384.8 189.6 376.9 190.4 370.1 188" fill="#2D0B8D"/>
<path d="M345.6 191.6C342.6 193.8 343.9 185.9 342.7 189.6C338.7 201.4 348.1 206.1 357.2 206C365.9 206 374.6 203.6 374.6 203.6C374.6 203.6 389.2 228.6 402.7 223.7C411.6 220.5 415.5 209.2 409.8 202.4C405.1 196.8 398.7 193.6 391.8 191.6C384.8 189.6 376.9 190.4 370.1 188" stroke="#2D0B8D" stroke-width="2.13" stroke-linecap="round" stroke-linejoin="round"/>
<path fill-rule="evenodd" clip-rule="evenodd" d="M339.6 195.6C327.9 168.2 349.1 159.2 359.5 170.4C359.9 154 389.3 146.2 394.7 173.1C397.2 168.7 416.8 182 394.7 193.4" fill="#2D0B8D"/>
<path d="M339.6 195.6C327.9 168.2 349.1 159.2 359.5 170.4C359.9 154 389.3 146.2 394.7 173.1C397.2 168.7 416.8 182 394.7 193.4" stroke="#2D0B8D" stroke-width="2.13" stroke-linecap="round" stroke-linejoin="round"/>
<path fill-rule="evenodd" clip-rule="evenodd" d="M400.2 224.3C399.1 224.5 404 219.6 409.8 226.4C413.9 231.2 409.6 244.8 400.2 240.1" fill="#FAF6EB"/>
<path d="M400.2 224.3C399.1 224.5 404 219.6 409.8 226.4C413.9 231.2 409.6 244.8 400.2 240.1" stroke="#2D0B8D" stroke-width="2.13" stroke-linecap="round" stroke-linejoin="round"/>
<path d="M405.1 230.6L404.8 231.5L404.2 232.8L403 234" stroke="#2D0B8D" stroke-width="2.13" stroke-linecap="round" stroke-linejoin="round"/>
<path fill-rule="evenodd" clip-rule="evenodd" d="M362.3 223.5C362.2 221.5 363.7 219.8 365.7 219.7C367.7 219.6 369.4 221.1 369.4 223.1C369.5 225.1 368 226.8 366 226.9C364.1 227 362.4 225.5 362.3 223.5Z" fill="#2D0B8D" stroke="#2D0B8D" stroke-width="2.13" stroke-linecap="round" stroke-linejoin="round"/>
<path fill-rule="evenodd" clip-rule="evenodd" d="M336.4 223.9C336.3 222 337.5 220.5 339 220.4C340.5 220.3 341.9 221.8 342 223.6C342.1 225.5 340.9 227 339.3 227.1C337.8 227.2 336.5 225.7 336.4 223.9Z" fill="#2D0B8D" stroke="#2D0B8D" stroke-width="2.13" stroke-linecap="round" stroke-linejoin="round"/>
<path d="M346.3 203.8C342.5 202.7 340.9 197.9 339.5 194.7" stroke="#FAF6EB" stroke-width="2.13" stroke-linecap="round" stroke-linejoin="round"/>
<path fill-rule="evenodd" clip-rule="evenodd" d="M377.3 272.2L353.1 266L354.1 283.6C354.1 283.6 361.4 281.7 367.6 278.2C373.7 274.7 377.3 272.2 377.3 272.2Z" fill="#2D0B8D" stroke="#2D0B8D" stroke-width="2.13" stroke-linecap="round" stroke-linejoin="round"/>
<path fill-rule="evenodd" clip-rule="evenodd" d="M408.9 288.4C408.9 288.4 463.5 304.9 472.1 340.4C480.7 376 443.3 430.6 443.3 430.6L379.2 518.3L241.6 493C241.6 493 256.9 346.9 271.8 317.3C276.3 308.3 280.2 291.8 293.8 284.9C306.9 278.3 329.7 281.1 329.7 281.1L355.4 274.3L363.2 299L397.1 279.6L408.9 288.4Z" fill="#0A9B83" stroke="#2D0B8D" stroke-width="2.13" stroke-linecap="round" stroke-linejoin="round"/>
<path d="M361.2 301.5C348.6 348 333.6 394 322.7 441C318.1 460.9 315.5 481.7 310.2 501.3" stroke="#2D0B8D" stroke-width="2.13" stroke-linecap="round" stroke-linejoin="round"/>
<path d="M400.6 288.4C390.4 326.1 406.2 323 372 308.3" stroke="#2D0B8D" stroke-width="2.13" stroke-linecap="round" stroke-linejoin="round"/>
<path d="M338.8 283.1C331.9 308.1 319 315 352.8 302.2" stroke="#2D0B8D" stroke-width="2.13" stroke-linecap="round" stroke-linejoin="round"/>
<path d="M370.3 241.5C370 252 361 251 361 248" stroke="#2D0B8D" stroke-width="2.13" stroke-linecap="round" stroke-linejoin="round"/>
<path d="M338.4 348.1C338.4 346.2 336.7 344.6 334.7 344.6C332.7 344.6 331 346.2 331 348.1C331 350 332.7 351.6 334.7 351.6C336.7 351.6 338.4 350 338.4 348.1Z" stroke="#2D0B8D" stroke-width="2.13" stroke-linecap="round" stroke-linejoin="round"/>
<path d="M320.6 406.4C320.6 404.7 318.9 403.4 316.8 403.4C314.7 403.4 313 404.8 313 406.4C313 408.1 314.7 409.4 316.8 409.4C318.9 409.4 320.6 408.1 320.6 406.4Z" stroke="#2D0B8D" stroke-width="2.13" stroke-linecap="round" stroke-linejoin="round"/>
<path d="M306.8 469.6C306.8 467.5 305 465.9 302.7 465.9C300.4 465.9 298.6 467.6 298.6 469.6C298.6 471.7 300.4 473.3 302.7 473.3C304.9 473.3 306.8 471.6 306.8 469.6Z" stroke="#2D0B8D" stroke-width="2.13" stroke-linecap="round" stroke-linejoin="round"/>
<path d="M391.8 580.1C415.3 666.2 463.4 686.7 383.9 730.7C370.5 738.1 333.8 762.1 320.4 769.5" stroke="#FAF6EB" stroke-width="2.13" stroke-linecap="round" stroke-linejoin="round"/>
<path d="M344.5 621.6C393.1 706.9 371.1 717.3 268.2 770.2" stroke="#FAF6EB" stroke-width="2.13" stroke-linecap="round" stroke-linejoin="round"/>
<path fill-rule="evenodd" clip-rule="evenodd" d="M402.3 511.4C402.3 511.4 408.1 447.5 364.5 420.2C320.9 392.9 294.8 341.7 294.8 341.7C294.8 341.7 236.1 402.6 216.5 431.1C196.9 459.6 189.7 532.6 189.7 532.6C189.7 532.6 220.7 550.6 228.3 570.5C235.8 590.1 227.7 615.1 216.4 625.7L188.9 637C188.9 637 179.5 720.9 210.9 770.7C242.3 820.5 290.2 841 381.9 807C463.3 776.8 425.2 611.9 425.2 611.9C425.2 611.9 392.5 605.6 382.9 579.4C363.5 527.2 402.3 511.4 402.3 511.4Z" fill="#2D0B8D" stroke="#2D0B8D" stroke-width="2.13" stroke-linecap="round" stroke-linejoin="round"/>
<path fill-rule="evenodd" clip-rule="evenodd" d="M420.9 509.3C420.9 509.3 426.7 445.4 383.1 418.1C339.5 390.8 299.4 347.9 299.4 347.9C299.4 347.9 254.7 400.4 235.1 429C215.5 457.5 208.3 530.5 208.3 530.5C208.3 530.5 239.3 548.5 246.9 568.4C254.4 588 246.3 613 235 623.6L207.5 634.8C207.5 634.8 210.1 718 241.5 767.8C272.9 817.6 308.8 838.8 400.5 804.8C481.9 774.6 443.8 609.7 443.8 609.7C443.8 609.7 411.1 603.4 401.5 577.2C382.2 525 420.9 509.3 420.9 509.3Z" fill="#2D0B8D" stroke="#2D0B8D" stroke-width="2.13" stroke-linecap="round" stroke-linejoin="round"/>
<path d="M362.5 721L358.4 687.3L316.6 691.9L319.5 730.2L362.5 721Z" stroke="#FAF6EB" stroke-width="2.13" stroke-linecap="round" stroke-linejoin="round"/>
<path d="M295.5 629C292.1 618.9 275.7 620.6 273.2 630.7C269.3 646.1 300.8 718.1 264.9 716.9" stroke="#FAF6EB" stroke-width="2.13" stroke-linecap="round" stroke-linejoin="round"/>
<path d="M382.9 614.4C393.3 604.2 396.9 631.1 397.2 633.3C399.8 650.3 392.9 667.4 398.1 684.7C399.1 687.9 402.1 698.4 407.4 697.9" stroke="#FAF6EB" stroke-width="2.13" stroke-linecap="round" stroke-linejoin="round"/>
<path d="M298.5 350.5C298.7 348.3 288.3 363.4 285.8 365.9C274.2 377.5 266.4 391.3 256.1 403.8C227 439.1 209.8 486.9 206.2 532" stroke="#FAF6EB" stroke-width="2.13" stroke-linecap="round" stroke-linejoin="round"/>
<path d="M206.3 532C221.5 542.2 246.6 560.8 248.1 584.5C249.2 602.5 230.2 636.5 207.7 628.9" stroke="#FAF6EB" stroke-width="2.13" stroke-linecap="round" stroke-linejoin="round"/>
<path d="M207.7 628.9C207.7 628.9 209.9 683 212.2 697.8C220.5 751.9 239.9 783.2 282.5 809.5C306.3 824.2 330.5 820.2 330.5 820.2" stroke="#FAF6EB" stroke-width="2.13" stroke-linecap="round" stroke-linejoin="round"/>
<path fill-rule="evenodd" clip-rule="evenodd" d="M354.9 680.4L300.1 138C300.1 138 299.1 106 285.8 99C272.5 92 278.2 88.4 278.2 88.4C278.2 88.4 310.7 63.1 288.7 50.1C266.7 37.2 253.5 45 249.1 57.2C244.7 69.4 247.6 86.1 247.6 86.1L228.9 91.9L233 106.5L251.3 100.7L254.5 114L232.5 124.1L240 144L262.4 134.3L319.4 688.2L354.9 680.4Z" fill="#2D0B8D" stroke="#2D0B8D" stroke-width="2.13" stroke-linecap="round" stroke-linejoin="round"/>
<path d="M286.1 364.7L289 392" stroke="#FAF6EB" stroke-width="2.13" stroke-linecap="round" stroke-linejoin="round"/>
<path d="M346.2 686.8L297.7 212.8L292.5 162" stroke="#FAF6EB" stroke-width="2.13" stroke-linecap="round" stroke-linejoin="round"/>
<path d="M338 689L287.1 213.1L282 163.2" stroke="#FAF6EB" stroke-width="2.13" stroke-linecap="round" stroke-linejoin="round"/>
<path d="M328 691L276.7 212.8L271.7 163.8" stroke="#FAF6EB" stroke-width="2.13" stroke-linecap="round" stroke-linejoin="round"/>
<path d="M269.9 77.6C248.5 92.4 278.5 123.4 282.9 138.6C284.9 145.4 283.6 151.5 281.9 158.1" stroke="#FAF6EB" stroke-width="2.13" stroke-linecap="round" stroke-linejoin="round"/>
<path fill-rule="evenodd" clip-rule="evenodd" d="M386.7 562.9L360.5 581.1L359.3 601L345.7 601.2C345.7 601.2 347.6 609.5 343.3 609.2C339.1 608.9 333.5 601.8 333.5 601.8C333.5 601.8 331.4 606.6 325.8 606.2C320.2 605.8 317.5 595.7 317.5 595.7L319.5 574.8C319.5 574.8 313.4 584.4 311 579.7C308.6 575 316.7 557.3 316.7 557.3L358.3 524.9L386.7 562.9Z" fill="#FAF6EB" stroke="#2D0B8D" stroke-width="2.13" stroke-linecap="round" stroke-linejoin="round"/>
<path fill-rule="evenodd" clip-rule="evenodd" d="M471.7 483.1C457 521.1 383.1 569.1 383.1 569.1L358.8 546L344.3 532.2C344.3 532.2 392.1 468.1 395 457C397.9 445.8 396.1 386.8 396.1 386.8L434 349.2L472.1 340.6C472.2 340.5 486.4 445 471.7 483.1Z" fill="#0A9B83" stroke="#2D0B8D" stroke-width="2.13" stroke-linecap="round" stroke-linejoin="round"/>
<path d="M347.3 588.2C346.2 591.9 346.2 595.9 346.1 599.8" stroke="#2D0B8D" stroke-width="2.13" stroke-linecap="round" stroke-linejoin="round"/>
<path d="M337.7 586.8C335.2 590.7 333.8 598.1 334.6 602.5" stroke="#2D0B8D" stroke-width="2.13" stroke-linecap="round" stroke-linejoin="round"/>
<path d="M327 583.2C324.8 589.1 323.5 598.5 325.5 604.7" stroke="#2D0B8D" stroke-width="2.13" stroke-linecap="round" stroke-linejoin="round"/>
<path d="M326.8 565.8C324.2 569.3 321.5 572.6 318.8 576" stroke="#2D0B8D" stroke-width="2.13" stroke-linecap="round" stroke-linejoin="round"/>
<path fill-rule="evenodd" clip-rule="evenodd" d="M235.4 292.5C242.1 278.7 268.3 241 276.6 243C285 245 314.5 260.9 310 267.7C307.5 271.5 281.9 254.4 281.9 255.1C281.9 257.1 313.7 270.1 308.8 279.9C307 283.5 279.1 265.3 276.4 264.5C273.7 263.7 301.3 285.1 297.5 287.4C293.8 289.6 276.2 279 276.2 279C276.2 279 274.1 302.9 272 305C270.4 306.7 234.2 294.9 235.4 292.5Z" fill="#FAF6EB" stroke="#2D0B8D" stroke-width="2.13" stroke-linecap="round" stroke-linejoin="round"/>
<path d="M200 645.2C199.2 654.4 187.9 692.1 185.9 701.7C179.6 731.9 202.8 768.2 226.1 770.8" stroke="#2D0B8D" stroke-width="2.13" stroke-linecap="round" stroke-linejoin="round"/>
<path fill-rule="evenodd" clip-rule="evenodd" d="M77.9001 507.8C51.3001 528.3 50.3001 472 65.2001 459C79.4001 446.6 93.6001 463.8 94.3001 477.8C95.0001 491.2 87.6001 500.3 77.9001 507.8Z" fill="#FAF6EB"/>
<path fill-rule="evenodd" clip-rule="evenodd" d="M113.4 627.8C125.3 623.8 107.8 585.1 122.6 586.4C140.1 587.9 143.6 635 130.2 644.1C122.1 649.6 100 632.3 113.4 627.8Z" fill="#0A9B83"/>
<path fill-rule="evenodd" clip-rule="evenodd" d="M277.7 323.6C277.7 343.6 277 357.6 270 364.7C263 371.7 252.5 369.3 252.5 349.4C252.5 329.6 258.1 320 265.1 312.9C272 305.7 277.7 303.6 277.7 323.6Z" fill="#0A9B83"/>
<path fill-rule="evenodd" clip-rule="evenodd" d="M466.8 368C463 372.9 461 378.8 460.4 384.9C459.5 396.1 459.3 409.8 460.7 426C462.3 444.1 431.7 438.9 422.8 458.6C415.8 474 427 482.8 419.2 495.9C411.2 509.5 397.1 503.6 379.2 518.3C371.9 524.3 363.1 534.4 358.9 545.9L383.2 569C383.2 569 457.1 521 471.8 483C482.4 455.6 477.9 393.7 474.6 361.2C471.5 362.8 468.9 365.2 466.8 368Z" fill="#2D0B8D" stroke="#2D0B8D" stroke-width="2.13" stroke-linecap="round" stroke-linejoin="round"/>
<path fill-rule="evenodd" clip-rule="evenodd" d="M421 398.5C405 398.5 395.3 388.4 394.7 387.3C387.7 375.6 387.2 353.2 395.9 343.1C402.3 335.7 413.4 335.2 435.6 334.2C444.5 333.8 460.6 333 463.8 334.1C484.1 341.1 454.6 362.5 454 364.7C450.8 376.5 440 398.6 421 398.5Z" fill="#0A9B83"/>
<path fill-rule="evenodd" clip-rule="evenodd" d="M414.4 483.3C415.4 488.8 399.2 498.1 395.7 495.1C394.1 493.7 395.4 489.9 395.9 488.2C396.3 487.1 398.6 479.8 405.1 479C409 478.6 413.9 480.5 414.4 483.3Z" fill="#2D0B8D" stroke="#2D0B8D" stroke-width="2.13" stroke-linecap="round" stroke-linejoin="round"/>
<path d="M89.2 112.2C81.5 108.2 72.6 107.4 65.1 109.1C60.7 110.1 56.8 111.8 53.4 113.9C53.2 111.9 52.9 109.9 52.7 107.9C52.2 104.1 51.9 100.2 51.5 96.2C55.2 93 58.7 89.5 61.9 85.7C69.8 76.8 75.7 65.8 77.5 53.9C79.2 42.1 80.6 30.1 77.2 19.2C76.5 16.4 75.4 14.5 73.8 10.8C73.2 9.50003 72.1 6.90003 70.5 4.80003C69 2.70003 66 1.00002 62.8 1.10002C56.3 1.80002 53.2 5.60003 51.1 8.30003C50.1 9.80003 49.3 11.2 48.5 12.7C48.1 13.5 47.9 14.1 47.6 14.7L47.4 15.2C47.2 15.7 47.3 15.6 47.2 15.9L46.9 17C45 23 45 28.7 45.1 34.1C45.2 39.4 45.2 44.6 45.3 49.8C45.1 58 45.4 66.1 45.9 74C43 77.2 40 80.4 36.7 83.3L30.8 88.6C28.9 90.3 26.8 92.3 24.6 94.5C16.4 102.8 9.50004 112.5 5.20004 123.8C0.700041 134.9 0.400041 148.5 5.70004 159.5C10.8 170.5 20.2 178.3 30 182.7C39.7 186.9 49.8 188.8 59.7 188.6C60.4 193.8 61.1 198.8 61.6 203.5C64.1 216.1 59.2 227 51.3 230.5C45.4 232.8 40.1 231.2 36.5 228.7C36.9 228.8 37.3 228.9 37.7 228.9C43.5 229.3 48.5 225 48.9 219.2C49.3 213.4 45 208.4 39.2 208C33.4 207.6 28.4 211.9 28 217.7C28 218.2 28 218.6 28 219.1C28 219.1 28 219.1 28 219.2C28.1 221.4 28.9 223.4 30.3 225.1C30.6 225.6 31 226.1 31.4 226.7C33 228.8 35.5 231.1 39.1 232.7C42.7 234.2 47.3 235 52.3 233.6C57.3 232.3 62.3 228.1 64.7 222.4C66 219.6 66.9 216.4 66.9 213.1C67 209.5 66.6 206.5 66.3 203.1C65.8 198.4 65.1 193.5 64.4 188.4C73.2 187.6 81.6 185.1 89.2 181.1C97.7 176.2 104.5 168.4 107.3 159.3C110.4 150.3 109.8 140.4 106.5 131.9C103.4 123.6 97.1 116.3 89.2 112.2ZM55.2 27.8C56.9 23.7 60.4 12.4 66.8 14.7C70.8 16.2 71.1 21.8 70.9 25.3C70.4 33.7 67.9 42 63.5 49.2C59.3 56.2 54.9 62.7 50.1 69C50 62.7 50 56.5 50.3 50.1C50.6 42.5 52.3 34.9 55.2 27.8ZM34 175.3C26 170.6 19.2 163.7 16.2 155.3C13.2 147 14.4 137.9 18.5 129.7C22.7 121.5 29.5 114.3 36.9 107.9C38.7 106.4 40.5 104.8 42.8 103.1L45.8 100.8C46.5 100.2 47.3 99.7 48 99.1C48.3 102.2 48.6 105.3 48.9 108.3C49.2 111 49.5 113.6 49.8 116.3C43.4 121.4 39.2 128.1 37.4 134.1C34.4 144.3 36.3 152.4 38 157.3C38.9 159.8 39.7 161.6 40.4 162.7C41 163.9 41.4 164.5 41.4 164.5C41.4 164.5 40.8 161.8 40.5 156.8C40.3 151.9 40.5 144.5 44.5 137C46 133.9 48.3 130.9 51.3 128.2C52.7 139.3 54.1 150 55.5 160.1C56.5 167.9 57.7 175.5 58.7 182.6C50.1 182.1 41.4 179.7 34 175.3ZM101.7 158C100.2 165.8 94.7 173.1 86.9 177.1C80 180.7 71.9 182.6 63.7 182.8C62.6 175.4 61.4 167.6 60.1 159.5C58.4 148.7 56.6 137.3 55 125.4C58.5 123 62.7 121.2 67.4 120.4C78.1 118.8 90.7 123.7 97.8 136.2C101.2 142.3 103.1 150.2 101.7 158Z" fill="#2D0B8D" stroke="#2D0B8D" stroke-width="2.13" stroke-linecap="round" stroke-linejoin="round"/>
<path d="M185.8 127.5C179 129.4 174.7 134.9 176.3 139.7L168.5 199.6C168.4 200.2 168.9 200.7 169.5 200.8H169.6C170.2 200.8 170.7 200.4 170.8 199.9V199.7C171.7 197.5 173.1 195.6 180.5 192.3L181.8 191.7C187.6 189.2 198.3 184.6 195.8 175.1C195.6 174.5 195 174.2 194.4 174.3C193.8 174.4 193.4 175 193.6 175.6C195.6 183.4 186.4 187.4 180.8 189.8L179.4 190.4C175.3 192.2 172.9 193.7 171.3 195.2L178.1 142.8C180.9 145.5 186.1 146.6 191.3 145.1C198.1 143.2 202.4 137.7 200.8 132.9C199.4 127.9 192.6 125.6 185.8 127.5Z" fill="#2D0B8D" stroke="#2D0B8D" stroke-width="2.13" stroke-linecap="round" stroke-linejoin="round"/>
<path d="M99.2 221.4H100L90.6 263.2C88.3 261.2 84.5 260.2 80.6 261C74.7 262.2 70.6 266.7 71.5 271.1C72.4 275.5 77.9 278.2 83.8 277C89.7 275.8 93.8 271.3 92.9 266.9C92.9 266.7 92.8 266.6 92.7 266.4L101.5 227.4L145.1 227.1L137 263C134.7 260.9 130.9 259.9 126.9 260.7C121 261.9 116.9 266.4 117.8 270.8C118.7 275.2 124.2 277.9 130.1 276.7C136 275.5 140.1 271 139.2 266.6C139.2 266.5 139.1 266.4 139.1 266.3L149.4 220.9H150.2L152.9 208.8L102.2 208.9L99.2 221.4ZM145.7 224.3L102.1 224.6L102.8 221.3L146.5 220.8L145.7 224.3Z" fill="#2D0B8D" stroke="#2D0B8D" stroke-width="2.13" stroke-linecap="round" stroke-linejoin="round"/>
<path d="M405.8 410C405.6 421.4 405.7 432.8 406.2 444.2" stroke="#2D0B8D" stroke-width="2.13" stroke-linecap="round" stroke-linejoin="round"/>
<path d="M412.8 424.6C413.2 432.8 413.1 441 412.3 449.1C411.8 454.7 410.9 460.5 407.8 465.3C406.1 467.9 403.9 470 401.8 472.3C396.2 478.5 391.8 485.7 387.5 492.8" stroke="#2D0B8D" stroke-width="2.13" stroke-linecap="round" stroke-linejoin="round"/>
<path d="M393.1 469.7C384.8 484 375.1 497.4 364.2 509.8" stroke="#2D0B8D" stroke-width="2.13" stroke-linecap="round" stroke-linejoin="round"/>
<path d="M419.2 301.3C421.4 303.6 442 313 453.2 323.8" stroke="#2D0B8D" stroke-width="2.13" stroke-linecap="round" stroke-linejoin="round"/>
<path d="M427.8 316C430.3 317.6 432.7 319.2 435.2 320.8C440.3 324.1 445.4 327.5 449.1 332.3C454.6 339.5 456.2 348.9 456.2 358C456.2 363.1 456.1 369 460.1 372" stroke="#2D0B8D" stroke-width="2.13" stroke-linecap="round" stroke-linejoin="round"/>
<path d="M350.9 362.9C346.7 374.7 343 386.7 339.9 398.8" stroke="#2D0B8D" stroke-width="2.13" stroke-linecap="round" stroke-linejoin="round"/>
<path d="M273.6 318C274.3 324.1 274.7 330.3 274.8 336.5C274.8 339.4 274.7 342.4 273.6 345.1C271.5 349.7 266.5 352.6 264.8 357.4" stroke="#2D0B8D" stroke-width="2.13" stroke-linecap="round" stroke-linejoin="round"/>
<path d="M279.5 347.7C275.3 355.6 270 362.9 263.9 369.5" stroke="#2D0B8D" stroke-width="2.13" stroke-linecap="round" stroke-linejoin="round"/>
<path d="M422.4 548.5C424.4 553.8 426.5 559.1 428.5 564.4C429.9 568 431.5 571.9 434.8 574" stroke="#2D0B8D" stroke-width="2.13" stroke-linecap="round" stroke-linejoin="round"/>
<path d="M417 555L438.9 601.2" stroke="#2D0B8D" stroke-width="2.13" stroke-linecap="round" stroke-linejoin="round"/>
<path d="M220.9 594.1C216.8 601.2 213.6 608.7 211.4 616.6" stroke="#2D0B8D" stroke-width="2.13" stroke-linecap="round" stroke-linejoin="round"/>
<path d="M177.6 687.1L179.4 746.4C177.4 739.3 175.4 732.2 173.4 725.1" stroke="#2D0B8D" stroke-width="2.13" stroke-linecap="round" stroke-linejoin="round"/>
<path d="M381.5 237C383.985 237 386 234.985 386 232.5C386 230.015 383.985 228 381.5 228C379.015 228 377 230.015 377 232.5C377 234.985 379.015 237 381.5 237Z" fill="#F55C4A"/>
</svg>
